<?xml version="1.0" encoding="UTF-8"?><svg id="Ebene_1" xmlns="http://www.w3.org/2000/svg" viewBox="0 0 202 71"><path id="Pfad_159" d="M.406,70.749v-4.64H10.44l3.658,3.169,3.829-3.169H89.909v4.638l-89.503,.002Z" fill="#ba0023"/><path id="Pfad_160" d="M69.773,50.285V30.863c0-3.438-1.743-5.919-5.183-7.377-.772-.203-1.564-.319-2.361-.346-3.047,0-5.393,1.561-6.977,4.642-.431,1.206-.635,2.482-.6,3.762l.042,18.742h-5.722l-.044-19.809c0-3.547-1.9-7.337-7.234-7.337-4.139-.163-7.626,3.061-7.789,7.2-.003,.067-.004,.134-.005,.2v19.746h-5.72l.03-19.278c0-8.635,4.825-13.587,13.237-13.587,3.816,0,7.447,1.646,9.961,4.517l.436,.468,.429-.474c2.555-2.954,6.281-4.634,10.187-4.594,12.887,0,13.034,12.38,13.034,12.907v20.041h-5.721Z" fill="#333f48"/><rect id="Rechteck_600" x="84.105" y="30.976" width="5.796" height="19.308" fill="#333f48"/><rect id="Rechteck_601" x="84.115" y="18.432" width="5.796" height="7.394" fill="#333f48"/><path id="Pfad_161" d="M11.365,63.86V23.139H.627l.112-5.719H11.365v-3.756c-.058-4.103,1.643-8.034,4.673-10.8,1.14-.865,2.398-1.561,3.737-2.067,1.704-.496,3.471-.743,5.246-.731V5.79c-3.721,.034-6.126,1.4-7.153,4.075-.486,1.207-.75,2.493-.779,3.794v3.756h11.121c-1.642,1.62-2.918,3.571-3.745,5.724h-7.376V63.847l-2.974,2.389-2.75-2.376Z" fill="#333f48"/><path id="Pfad_162" d="M112.262,23.548h5.655v1.555h-5.655v6.2h-1.633v-13.605h7.677v1.55h-6.044v4.3Z" fill="#333f48"/><path id="Pfad_163" d="M121.222,28.096v-5.772h1.633v5.5c-.12,1.093,.669,2.076,1.762,2.196,.132,.014,.264,.016,.396,.004,.954-.062,1.804-.624,2.235-1.478v-6.219h1.632v8.979h-1.516v-1.38c-.564,.994-1.617,1.61-2.76,1.613-1.804,.066-3.319-1.343-3.385-3.147-.004-.099-.003-.197,.003-.296Z" fill="#333f48"/><path id="Pfad_164" d="M139.803,25.531v5.772h-1.633v-5.5c.12-1.093-.669-2.076-1.762-2.196-.131-.014-.263-.016-.395-.004-.954,.094-1.795,.665-2.235,1.516v6.181h-1.632v-8.979h1.516v1.263c.594-.949,1.641-1.518,2.76-1.5,1.804-.065,3.319,1.344,3.384,3.148,.004,.1,.003,.2-.003,.299Z" fill="#333f48"/><path id="Pfad_165" d="M150.747,29.807c-.912,1.086-2.255,1.718-3.673,1.729-2.608-.066-4.669-2.233-4.603-4.842,.063-2.516,2.088-4.54,4.603-4.603,1.367,.006,2.667,.592,3.576,1.613l-1.108,.992c-.631-.696-1.528-1.092-2.468-1.089-1.771,.125-3.106,1.662-2.98,3.434,.113,1.597,1.383,2.867,2.98,2.98,1.027,.004,1.997-.47,2.624-1.283l1.049,1.069Z" fill="#333f48"/><path id="Pfad_166" d="M152.341,22.325h1.744v-2.741h1.633v2.741h2.8v1.477h-2.8v4.84c-.102,.655,.345,1.269,1,1.371,.099,.016,.2,.019,.3,.009,.37-.031,.725-.158,1.031-.369l.6,1.341c-.562,.345-1.207,.532-1.866,.544-1.45,.045-2.661-1.094-2.706-2.544-.003-.092,0-.183,.006-.274v-4.917h-1.748l.006-1.478Z" fill="#333f48"/><path id="Pfad_167" d="M162.312,18.34c.612,.002,1.106,.5,1.104,1.112-.002,.612-.5,1.106-1.112,1.104-.61-.002-1.104-.498-1.104-1.108,.007-.611,.501-1.104,1.112-1.108Zm-.817,3.985h1.633v8.979h-1.628l-.005-8.979Z" fill="#333f48"/><path id="Pfad_168" d="M175.315,26.814c-.053,2.555-2.167,4.583-4.722,4.53-2.555-.053-4.583-2.167-4.53-4.722,.052-2.517,2.108-4.531,4.626-4.531,2.54-.015,4.612,2.032,4.628,4.572,0,.05,0,.101-.002,.151Zm-1.633,0c-.114-1.653-1.547-2.9-3.2-2.786-1.653,.114-2.9,1.547-2.786,3.2,.109,1.573,1.417,2.793,2.994,2.793,1.663-.01,3.003-1.366,2.993-3.029,0-.06-.002-.119-.006-.178h.005Z" fill="#333f48"/><path id="Pfad_169" d="M185.617,25.531v5.772h-1.633v-5.5c.12-1.093-.669-2.076-1.762-2.196-.131-.014-.263-.016-.395-.004-.954,.094-1.795,.665-2.235,1.516v6.181h-1.633v-8.979h1.516v1.263c.593-.949,1.641-1.518,2.76-1.5,1.804-.066,3.319,1.343,3.385,3.147,.004,.1,.003,.2-.003,.3Z" fill="#333f48"/><path id="Pfad_170" d="M196.346,25.395v5.908h-1.5v-1.3c-.717,.966-1.849,1.535-3.052,1.535-1.766,.08-3.261-1.287-3.341-3.052v-.018c0-1.749,1.534-2.994,3.556-2.994,.952-.014,1.888,.242,2.7,.739v-.486c.047-1.129-.829-2.083-1.958-2.13-.105-.004-.211,0-.316,.011-.94,.047-1.857,.306-2.682,.758l-.68-1.361c1.021-.596,2.181-.911,3.363-.913,2.646,0,3.91,1.632,3.91,3.303Zm-1.633,3.343v-1.264c-.706-.436-1.523-.659-2.352-.641-1.4,0-2.274,.7-2.274,1.633,0,1.166,1.049,1.633,2.06,1.633,1.014-.053,1.952-.55,2.566-1.359v-.002Z" fill="#333f48"/><path id="Pfad_171" d="M199.961,16.61h1.633v14.693h-1.633v-14.693Z" fill="#333f48"/><path id="Pfad_172" d="M110.901,57.088h1.633v13.605h-1.633v-13.605Z" fill="#333F48"/><path id="Pfad_173" d="M124.079,64.921v5.774h-1.636v-5.5c.12-1.093-.669-2.076-1.762-2.196-.132-.014-.264-.016-.396-.004-.954,.094-1.795,.665-2.235,1.516v6.184h-1.633v-8.98h1.516v1.264c.594-.949,1.641-1.518,2.76-1.5,1.804-.068,3.321,1.339,3.388,3.143,.004,.1,.003,.199-.002,.299Z" fill="#333F48"/><path id="Pfad_174" d="M126.567,61.714h1.749v-2.74h1.633v2.74h2.8v1.478h-2.8v4.84c-.102,.655,.345,1.269,1,1.371,.099,.016,.2,.019,.3,.009,.37-.031,.725-.159,1.031-.369l.6,1.341c-.562,.344-1.205,.531-1.864,.542-1.45,.045-2.661-1.094-2.706-2.544-.003-.092,0-.183,.006-.274v-4.917h-1.748v-1.477Z" fill="#333F48"/><path id="Pfad_175" d="M143.671,66.262c.003,.175-.004,.35-.019,.525h-7.25c.207,1.537,1.54,2.669,3.09,2.624,1.054-.007,2.048-.494,2.7-1.322l1.03,1.069c-.931,1.099-2.291,1.744-3.731,1.768-2.533,.054-4.631-1.956-4.685-4.489-.002-.078-.001-.156,0-.234-.142-2.462,1.739-4.573,4.2-4.715,.096-.006,.193-.008,.29-.007,2.508,0,4.374,1.885,4.374,4.781Zm-1.594-.836c-.142-1.415-1.357-2.478-2.779-2.429-1.437-.049-2.675,1.003-2.857,2.429h5.636Z" fill="#333F48"/><path id="Pfad_176" d="M151.641,61.714l-.6,1.477c-.324-.144-.676-.21-1.03-.194-.913,.089-1.704,.671-2.061,1.516v6.182h-1.633v-8.98h1.516v1.38c.491-.944,1.444-1.558,2.507-1.613,.444,0,.884,.079,1.301,.232Z" fill="#333F48"/><path id="Pfad_177" d="M152.846,61.714h1.866v-3.09c-.059-1.518,1.123-2.796,2.641-2.855,.04-.002,.079-.002,.119-.002,.664,.003,1.315,.184,1.885,.524l-.6,1.341c-.316-.199-.676-.319-1.049-.349-.71-.045-1.322,.493-1.367,1.203-.005,.078-.003,.157,.006,.235v2.993h2.332v1.477h-2.332v7.5h-1.633v-7.5h-1.868v-1.477Z" fill="#333F48"/><path id="Pfad_178" d="M168.454,64.785v5.91h-1.5v-1.3c-.717,.966-1.849,1.535-3.052,1.535-1.762,.083-3.258-1.278-3.341-3.04v-.03c-.001-1.749,1.534-2.994,3.556-2.994,.952-.014,1.888,.242,2.7,.739v-.486c.047-1.129-.83-2.082-1.959-2.129-.105-.004-.21,0-.315,.011-.94,.047-1.857,.306-2.682,.758l-.68-1.361c1.02-.596,2.18-.911,3.362-.913,2.647-.004,3.911,1.629,3.911,3.3Zm-1.633,3.343v-1.263c-.706-.436-1.523-.659-2.352-.641-1.4,0-2.274,.7-2.274,1.633,0,1.166,1.049,1.633,2.06,1.633,1.014-.054,1.953-.552,2.566-1.362h0Z" fill="#333F48"/><path id="Pfad_179" d="M179.398,69.195c-.912,1.087-2.255,1.719-3.674,1.729-2.608-.066-4.669-2.233-4.604-4.841,.063-2.516,2.088-4.54,4.604-4.604,1.367,.007,2.666,.594,3.574,1.616l-1.108,.991c-.631-.696-1.528-1.092-2.468-1.089-1.771,.117-3.112,1.648-2.995,3.419,.106,1.608,1.387,2.889,2.995,2.995,1.027,.004,1.997-.47,2.624-1.283l1.052,1.067Z" fill="#333F48"/><path id="Pfad_180" d="M190.009,66.262c.003,.175-.004,.35-.019,.525h-7.25c.207,1.536,1.54,2.669,3.09,2.624,1.054-.007,2.048-.494,2.7-1.322l1.03,1.069c-.932,1.099-2.292,1.743-3.732,1.768-2.533,.054-4.631-1.956-4.685-4.489-.002-.078-.001-.156,0-.234-.142-2.462,1.739-4.573,4.2-4.715,.096-.006,.193-.008,.29-.007,2.509,0,4.375,1.885,4.375,4.781Zm-1.593-.836c-.142-1.415-1.357-2.478-2.779-2.429-1.437-.049-2.675,1.003-2.857,2.429h5.636Z" fill="#333F48"/><path id="Pfad_181" d="M112.245,37.28l4.719,7.656,4.7-7.656h1.586v13.706h-1.644v-10.73l-4.68,7.617-4.68-7.6v10.711h-1.645v-13.704h1.644Z" fill="#333f48"/><path id="Pfad_182" d="M135.425,46.464c-.054,2.574-2.183,4.617-4.757,4.563-2.574-.054-4.617-2.183-4.563-4.757,.053-2.535,2.123-4.563,4.659-4.564,2.559-.016,4.646,2.045,4.663,4.603,0,.052,0,.103-.002,.155Zm-1.645,0c-.115-1.666-1.558-2.923-3.224-2.808-1.666,.115-2.923,1.558-2.808,3.224,.109,1.585,1.427,2.815,3.016,2.815,1.676-.005,3.03-1.368,3.024-3.044,0-.063-.002-.125-.006-.187h-.002Z" fill="#333f48"/><path id="Pfad_183" d="M145.668,49.479c-.918,1.095-2.271,1.732-3.7,1.743-2.628-.054-4.714-2.228-4.661-4.855,.052-2.552,2.109-4.608,4.661-4.661,1.376,.006,2.685,.597,3.6,1.625l-1.116,1c-.636-.702-1.54-1.102-2.488-1.1-1.784,.126-3.129,1.674-3.004,3.458,.113,1.61,1.394,2.89,3.004,3.004,1.034,.005,2.012-.473,2.644-1.292l1.06,1.078Z" fill="#333f48"/><path id="Pfad_184" d="M149.896,46.601v4.386h-1.645v-14.8h1.645v9.77l3.877-4.014h2.151l-4.229,4.268,4.582,4.778h-2.291l-4.09-4.388Z" fill="#333f48"/><path id="Pfad_185" d="M157.591,45.426h5.224v1.566h-5.228l.004-1.566Z" fill="#333f48"/><path id="Pfad_186" d="M165.344,47.755v-5.815h1.645v5.539c-.118,1.102,.679,2.09,1.78,2.209,.131,.014,.263,.015,.394,.003,.961-.063,1.817-.629,2.252-1.488v-6.266h1.645v9.046h-1.528v-1.39c-.567,1.002-1.628,1.623-2.78,1.625-1.817,.066-3.344-1.354-3.41-3.171-.004-.097-.003-.195,.002-.292Z" fill="#333f48"/><path id="Pfad_187" d="M177.699,41.941v1.312c.687-1.003,1.839-1.587,3.054-1.547,2.628,.216,4.583,2.521,4.368,5.148-.191,2.328-2.039,4.176-4.368,4.368-1.13,.027-2.208-.473-2.917-1.352v5.62h-1.645v-13.55h1.508Zm.137,6.208c.567,.935,1.57,1.518,2.663,1.547,1.784-.133,3.123-1.688,2.99-3.472-.119-1.599-1.391-2.87-2.99-2.99-1.093,.029-2.096,.612-2.663,1.547v3.368Z" fill="#333f48"/></svg>