<?xml version="1.0" encoding="UTF-8"?><svg id="Ebene_1" xmlns="http://www.w3.org/2000/svg" viewBox="0 0 215 107"><path id="Pfad_99" d="M146.772,38.39c0-3.17,2.569-5.74,5.738-5.74,3.17,0,5.74,2.569,5.74,5.738,0,3.17-2.569,5.74-5.738,5.74h-.002c-3.169,0-5.738-2.569-5.738-5.738" fill="#cb001b"/><path id="Pfad_100" d="M162.934,.155c-7.164,.262-15.2,8.036-15.2,7.949,.088-4.455-3.231-8.735-9.347-7.774s-13.802,8.647-13.89,8.647c.165-3.591-1.927-6.903-5.24-8.298-4.795-1.809-11.909-.463-21.111,9.726-7.238,8.015-25.623,28.976-32.547,36.832,2.447,1.451,4.593,3.356,6.323,5.614l22-27.188s12.75-16.715,19.743-18.344c5.788-1.349,6.691,4.187,4.543,9.347-4.372,10.494-15.113,27.955-15.113,27.955,0,0,15.022-19.479,17.558-22.713s15.2-19.132,20.792-13.541c5.448,5.448-10.921,29.001-10.921,29.001l8.387-10.831s17.034-22.363,24.46-19.568c7.426,2.796-4.804,23.236-4.804,23.149,0,0,7.325-5.583,11.268-17.559,1.805-5.472,.263-12.666-6.9-12.404M36.611,79.954l-17.529,19.78h15.343l10.61-12.976c-3.325-1.539-6.218-3.877-8.42-6.805" fill="#6f838e"/><path id="Pfad_101" d="M.795,55.708c0-4.814,3.88-8.882,9.674-8.882,2.716-.072,5.345,.956,7.292,2.85,1.952-1.886,4.578-2.913,7.291-2.85,5.843,0,9.536,4.066,9.536,8.88v20.987h-5.329v-20.192c0-3.318-1.681-5.14-4.299-5.14-2.572,0-4.576,1.823-4.576,5.14v20.196h-5.372v-20.196c0-3.318-2.011-5.14-4.627-5.14-2.571,0-4.253,1.823-4.253,5.14v20.196H.795v-20.989Z" fill="#182632"/><path id="Pfad_102" d="M89.6,47.341h5.372v19.117c-.003,5.961-4.835,10.792-10.796,10.795-5.943-.025-10.747-4.852-10.744-10.795-.16-5.802,4.414-10.635,10.216-10.795,.051-.001,.102-.002,.153-.003,2.129,.037,4.179,.813,5.797,2.197l.002-10.516Zm-5.424,24.772c3.008,.014,5.457-2.412,5.472-5.42,0-.017,0-.035,0-.052,.014-3.008-2.412-5.457-5.42-5.472-.017,0-.035,0-.052,0-3.007-.015-5.457,2.411-5.472,5.418,0,.018,0,.036,0,.054-.015,3.007,2.409,5.456,5.416,5.472,.019,0,.037,0,.056,0" fill="#182632"/><path id="Pfad_103" d="M208.831,74.962c-1.576,1.424-3.626,2.208-5.75,2.198-5.733,.026-10.401-4.601-10.427-10.333,0-.123,.001-.246,.005-.369-.186-5.774,4.343-10.605,10.117-10.792,.102-.003,.203-.005,.305-.005,2.109-.01,4.145,.774,5.703,2.197v-1.729h5.422v20.565h-5.372l-.002-1.73Zm-5.372-2.85c3.022,0,5.472-2.45,5.472-5.472h0c0-3.022-2.45-5.472-5.472-5.472-3.007-.015-5.457,2.411-5.472,5.418,0,.018,0,.036,0,.054-.015,3.007,2.411,5.457,5.418,5.472,.018,0,.036,0,.054,0" fill="#182632"/><path id="Pfad_104" d="M64.959,66.527c-.006,5.785-4.701,10.469-10.486,10.462-.048,0-.096,0-.144-.001-5.783,.086-10.542-4.532-10.628-10.315,0-.048-.001-.097-.001-.145-.009-5.769,4.66-10.453,10.429-10.463,.067,0,.133,0,.2,.002,5.768-.102,10.527,4.492,10.628,10.26,.001,.067,.002,.134,.002,.201m-5.126,0c.168-3.006-2.132-5.58-5.139-5.748-.122-.007-.244-.01-.366-.008-3.01-.034-5.478,2.379-5.512,5.389-.001,.122,.001,.245,.008,.367-.169,3.006,2.131,5.579,5.136,5.748,.122,.007,.245,.01,.367,.008,3.011,.034,5.479-2.379,5.513-5.39,.001-.122-.001-.244-.008-.366" fill="#182632"/><path id="Pfad_105" d="M123.43,66.443c0,.379,0,1.133-.041,1.89h-14.873c.742,2.449,3.029,4.1,5.587,4.033,2.009,.036,3.958-.683,5.461-2.017l2.521,3.78c-2.257,1.835-5.073,2.843-7.982,2.857-5.779,.136-10.574-4.439-10.71-10.218-.002-.081-.003-.162-.003-.243,0-5.84,4.243-10.46,9.998-10.46,5.531-.018,10.029,4.45,10.048,9.981,0,.132-.002,.264-.006,.396m-5.041-1.764c-.086-1.723-1.681-4.033-5-4.033-2.442-.176-4.591,1.601-4.875,4.033h9.875Z" fill="#182632"/><path id="Pfad_107" d="M133.319,47.341h5.243v29.141h-5.243v-29.141Z" fill="#182632"/><path id="Pfad_108" d="M179.38,69.846l3.319,3.362c-2.056,2.409-5.067,3.792-8.234,3.78-5.808,.107-10.604-4.514-10.711-10.323,0-.046-.001-.092-.002-.138,.016-5.795,4.727-10.479,10.522-10.463,.063,0,.127,0,.19,.002,3.127-.022,6.107,1.329,8.151,3.696l-3.482,3.109c-1.18-1.341-2.882-2.107-4.669-2.1-3.048-.04-5.551,2.398-5.591,5.445-.001,.104,0,.207,.005,.311-.132,3.045,2.23,5.62,5.275,5.752,.104,.004,.207,.006,.311,.005,1.94,.049,3.78-.863,4.916-2.437" fill="#182632"/><path id="Pfad_110" d="M149.764,56.571h5.286v19.912h-5.286v-19.912Z" fill="#182632"/><path id="Pfad_111" d="M85.582,83.192l-6.491,16.524h2.124l1.724-4.46h7.128l1.724,4.46h2.077l-6.446-16.524h-1.84Zm.921,2.832l2.832,7.341h-5.665l2.832-7.341Z" fill="#182632"/><path id="Pfad_112" d="M97.882,96.435c.763,1.074,1.984,1.729,3.301,1.77,1.109,0,2.361-.472,2.361-1.345,.004-.944-.799-1.416-2.475-1.746-2.337-.474-3.99-1.393-3.99-3.447,0-1.583,1.583-3.14,4.013-3.14,1.512-.01,2.966,.585,4.037,1.652l-1.298,1.345c-.723-.74-1.705-1.171-2.739-1.204-1.393,0-2.076,.684-2.076,1.393,0,.826,.85,1.274,2.643,1.652,2.078,.449,3.848,1.228,3.848,3.446,0,2.1-2.22,3.184-4.32,3.184-1.826-.008-3.549-.851-4.676-2.288l1.371-1.272Z" fill="#182632"/><path id="Pfad_113" d="M110.276,96.435c.763,1.074,1.984,1.729,3.301,1.77,1.109,0,2.361-.472,2.361-1.345,.004-.944-.799-1.416-2.474-1.746-2.338-.474-3.991-1.393-3.991-3.447,0-1.583,1.583-3.14,4.013-3.14,1.512-.01,2.966,.585,4.037,1.652l-1.298,1.345c-.723-.74-1.705-1.171-2.739-1.204-1.393,0-2.076,.684-2.076,1.393,0,.826,.85,1.274,2.643,1.652,2.078,.449,3.848,1.228,3.848,3.446,0,2.1-2.22,3.184-4.32,3.184-1.826-.008-3.549-.851-4.676-2.288l1.371-1.272Z" fill="#182632"/><path id="Pfad_114" d="M132.489,94.264c.084,3.084-2.349,5.652-5.433,5.735-.062,.002-.124,.002-.186,.002-3.085,.019-5.601-2.467-5.62-5.552,0-.062,0-.123,.002-.185-.084-3.083,2.348-5.651,5.432-5.734,.062-.002,.124-.002,.186-.002,3.085-.02,5.601,2.465,5.621,5.549,0,.062,0,.125-.002,.187m-1.983,0c.131-2.016-1.397-3.757-3.413-3.888-.074-.005-.149-.007-.224-.008-2.02,.008-3.651,1.653-3.643,3.673,0,.074,.003,.149,.008,.223-.133,2.016,1.393,3.758,3.409,3.891,.075,.005,.15,.008,.226,.008,2.02-.008,3.652-1.652,3.644-3.672,0-.076-.003-.151-.008-.227" fill="#182632"/><path id="Pfad_115" d="M145.734,97.899c-1.107,1.321-2.738,2.089-4.462,2.102-3.084,.02-5.6-2.464-5.62-5.548,0-.063,0-.126,.002-.189-.076-3.091,2.367-5.658,5.458-5.735,.053-.001,.107-.002,.16-.002,1.66,.007,3.239,.719,4.344,1.959l-1.349,1.205c-.766-.845-1.854-1.325-2.995-1.322-2.02,.007-3.651,1.65-3.644,3.67,0,.075,.003,.15,.008,.225-.131,2.016,1.398,3.756,3.414,3.887,.074,.005,.148,.007,.223,.008,1.247,.006,2.425-.57,3.187-1.558l1.275,1.298Z" fill="#182632"/><path id="Pfad_116" d="M150.667,83.971c.739,.008,1.337,.606,1.345,1.345-.01,.738-.607,1.333-1.345,1.341-.738-.008-1.335-.603-1.345-1.341,.008-.739,.606-1.337,1.345-1.345m-.995,4.839h1.987v10.907h-1.983l-.004-10.907Z" fill="#182632"/><path id="Pfad_117" d="M165.752,92.54v7.177h-1.818v-1.582c-.87,1.174-2.245,1.866-3.707,1.865-2.14,.101-3.957-1.552-4.058-3.693l-.002-.037c0-2.125,1.865-3.635,4.32-3.635,1.157-.019,2.296,.292,3.283,.895v-.589c.057-1.372-1.01-2.531-2.382-2.588-.128-.005-.257,0-.384,.014-1.142,.057-2.256,.372-3.258,.921l-.821-1.653c1.238-.723,2.645-1.106,4.079-1.109,3.21,0,4.745,1.983,4.745,4.013m-1.98,4.061v-1.535c-.857-.53-1.849-.8-2.856-.779-1.7,0-2.763,.851-2.763,1.984,0,1.416,1.274,1.983,2.502,1.983,1.232-.065,2.372-.67,3.117-1.652" fill="#182632"/><path id="Pfad_118" d="M169.483,88.81h2.124v-3.328h1.983v3.328h3.399v1.791h-3.399v5.885c-.123,.797,.423,1.542,1.22,1.665,.12,.019,.242,.022,.363,.01,.449-.038,.88-.192,1.251-.448l.732,1.629c-.683,.418-1.466,.646-2.267,.661-1.76,.057-3.233-1.324-3.29-3.084-.004-.113-.001-.227,.007-.34v-5.969h-2.122v-1.8Z" fill="#182632"/><path id="Pfad_119" d="M182.302,83.971c.739,.008,1.337,.606,1.345,1.345-.01,.738-.607,1.333-1.345,1.341-.738-.008-1.335-.603-1.345-1.341,.008-.739,.606-1.337,1.345-1.345m-.995,4.839h1.987v10.907h-1.983l-.004-10.907Z" fill="#182632"/><path id="Pfad_120" d="M198.802,94.264c.084,3.084-2.349,5.652-5.433,5.735-.062,.002-.124,.002-.186,.002-3.085,.019-5.601-2.467-5.62-5.552,0-.062,0-.123,.002-.185-.084-3.083,2.348-5.651,5.432-5.734,.062-.002,.124-.002,.186-.002,3.085-.02,5.601,2.465,5.621,5.549,0,.062,0,.125-.002,.187m-1.983,0c.131-2.016-1.397-3.757-3.413-3.888-.074-.005-.149-.007-.224-.008-2.02,.008-3.651,1.653-3.643,3.673,0,.074,.003,.149,.008,.223-.133,2.016,1.393,3.758,3.409,3.891,.075,.005,.15,.008,.226,.008,2.02-.008,3.652-1.652,3.644-3.672,0-.076-.003-.151-.008-.227" fill="#182632"/><path id="Pfad_121" d="M212.022,92.705v7.011h-1.983v-6.68c.143-1.328-.818-2.52-2.146-2.663-.158-.017-.316-.018-.474-.004-1.159,.114-2.18,.807-2.715,1.841v7.506h-1.983v-10.907h1.841v1.535c.722-1.151,1.994-1.841,3.353-1.818,2.191-.079,4.031,1.633,4.11,3.824,.004,.118,.003,.236-.003,.354" fill="#182632"/></svg>