<?xml version="1.0" encoding="UTF-8"?><svg id="Ebene_1" xmlns="http://www.w3.org/2000/svg" viewBox="0 0 215 107"><path id="Pfad_123" d="M105.581,84.096h2.002v14.775h7.483v1.906h-9.485v-16.681Z" fill="#fff"/><path id="Pfad_124" d="M127.6,93.532v7.245h-1.836v-1.598c-.878,1.186-2.266,1.884-3.741,1.883-2.161,.102-3.996-1.568-4.097-3.729l-.002-.036c0-2.145,1.882-3.67,4.361-3.67,1.168-.018,2.317,.296,3.313,.906v-.596c0-2.288-1.906-2.597-2.788-2.597-1.152,.057-2.277,.375-3.288,.93l-.837-1.669c1.251-.731,2.673-1.117,4.122-1.12,3.245,.002,4.794,2.004,4.794,4.052Zm-1.999,4.097v-1.549c-.865-.534-1.867-.807-2.883-.786-1.715,0-2.788,.858-2.788,2.002,0,1.429,1.287,2.001,2.526,2.001,1.243-.066,2.393-.676,3.145-1.668Z" fill="#fff"/><path id="Pfad_125" d="M141.711,93.699v7.077h-2.002v-6.744c.145-1.34-.824-2.544-2.164-2.689-.16-.017-.321-.019-.481-.004-1.787,0-2.74,1.859-2.74,1.859v7.578h-2.002v-11.009h1.855v1.546c.729-1.162,2.012-1.858,3.383-1.835,2.212-.082,4.071,1.644,4.154,3.856,.005,.122,.004,.243-.003,.365Z" fill="#fff"/><path id="Pfad_126" d="M154.553,99.395c-.859,1.079-2.172,1.696-3.551,1.669-2.979,0-5.338-2.55-5.338-5.791s2.359-5.791,5.338-5.791c1.481-.058,2.887,.654,3.718,1.883v-1.598h1.835v11.06c0,3.813-2.597,5.719-5.791,5.719-1.822-.017-3.56-.774-4.813-2.097l1.218-1.501c.894,1.069,2.205,1.703,3.598,1.74,2.336,0,3.789-1.287,3.789-3.765l-.002-1.526Zm0-6.196c-.702-1.122-1.918-1.819-3.24-1.859-2.24,0-3.647,1.763-3.647,3.932s1.406,3.931,3.647,3.931c1.325-.031,2.545-.73,3.24-1.858v-4.146Z" fill="#fff"/><path id="Pfad_127" d="M161.274,96.847v-7.077h2.001v6.745c-.144,1.341,.826,2.544,2.166,2.688,.159,.017,.319,.019,.479,.004,1.169-.077,2.211-.766,2.74-1.811v-7.626h2.002v11.01h-1.858v-1.696c-.691,1.219-1.982,1.975-3.383,1.979-2.212,.08-4.07-1.648-4.15-3.86-.004-.119-.003-.237,.003-.356Z" fill="#fff"/><path id="Pfad_128" d="M184.533,93.532v7.245h-1.836v-1.598c-.878,1.186-2.266,1.884-3.741,1.883-2.161,.102-3.996-1.568-4.097-3.729l-.002-.036c0-2.145,1.882-3.67,4.361-3.67,1.168-.018,2.317,.296,3.313,.906v-.596c0-2.288-1.906-2.597-2.788-2.597-1.152,.057-2.277,.375-3.288,.93l-.837-1.669c1.251-.731,2.673-1.117,4.122-1.12,3.244,.002,4.794,2.004,4.794,4.052Zm-2.002,4.099v-1.549c-.866-.535-1.867-.808-2.884-.786-1.715,0-2.788,.858-2.788,2.002,0,1.429,1.287,2.001,2.526,2.001,1.244-.066,2.395-.677,3.147-1.67v.002Z" fill="#fff"/><path id="Pfad_129" d="M197.378,99.395c-.859,1.079-2.172,1.696-3.551,1.669-2.979,0-5.338-2.55-5.338-5.791s2.359-5.791,5.338-5.791c1.481-.058,2.887,.654,3.718,1.883v-1.598h1.835v11.06c0,3.813-2.597,5.719-5.791,5.719-1.822-.017-3.559-.774-4.813-2.097l1.218-1.501c.894,1.069,2.205,1.703,3.598,1.74,2.336,0,3.789-1.287,3.789-3.765l-.002-1.526Zm0-6.196c-.702-1.122-1.918-1.819-3.24-1.859-2.24,0-3.647,1.763-3.647,3.932s1.406,3.931,3.647,3.931c1.325-.031,2.545-.73,3.24-1.858v-4.146Z" fill="#fff"/><path id="Pfad_130" d="M214.204,95.347c.003,.215-.005,.429-.024,.643h-8.889c.253,1.884,1.888,3.273,3.788,3.218,1.293-.008,2.513-.604,3.313-1.62l1.263,1.31c-1.142,1.348-2.809,2.139-4.576,2.17-3.106,.066-5.678-2.398-5.744-5.504-.002-.096-.002-.191,.001-.287,0-3.218,2.192-5.791,5.505-5.791,3.074-.003,5.361,2.309,5.361,5.862Zm-1.954-1.025c-.176-1.735-1.665-3.037-3.408-2.979-1.76-.059-3.277,1.231-3.501,2.979h6.908Z" fill="#fff"/><circle id="Ellipse_18" cx="154.281" cy="38.837" r="5.806" fill="#cb001b"/><path id="Pfad_131" d="M164.824,.156c-7.246,.265-15.377,8.131-15.377,8.042,.088-4.507-3.272-8.837-9.456-7.866s-13.962,8.752-14.051,8.752c.168-3.634-1.949-6.987-5.302-8.398-4.851-1.83-12.048-.469-21.357,9.839-7.322,8.107-25.921,29.313-32.926,37.261,2.476,1.467,4.647,3.395,6.398,5.679l22.256-27.505s12.897-16.911,19.972-18.558c5.86-1.364,6.773,4.236,4.596,9.455-4.424,10.616-15.289,28.279-15.289,28.279,0,0,15.2-19.71,17.763-22.976,2.562-3.266,15.377-19.354,21.033-13.698,5.512,5.511-11.046,29.34-11.046,29.34l8.484-10.958s17.233-22.624,24.745-19.795c7.512,2.829-4.861,23.507-4.861,23.418,0,0,7.41-5.648,11.4-17.763,1.824-5.54,.269-12.814-6.981-12.549ZM37.03,80.884l-17.731,20.014h15.524l10.73-13.127c-3.366-1.557-6.294-3.923-8.523-6.887Z" fill="#fff"/><path id="Pfad_132" d="M.798,56.357c0-4.87,3.924-8.98,9.787-8.98,2.747-.073,5.407,.967,7.376,2.883,1.974-1.908,4.631-2.947,7.376-2.883,5.911,0,9.646,4.113,9.646,8.98v21.397h-5.394v-20.594c0-3.357-1.702-5.201-4.349-5.201-2.602,0-4.635,1.844-4.635,5.201v20.594h-5.437v-20.594c0-3.357-2.033-5.201-4.681-5.201-2.602,0-4.304,1.844-4.304,5.201v20.594H.795l.003-21.397Z" fill="#fff"/><path id="Pfad_133" d="M90.637,47.893h5.44v19.339c.002,6.019-4.875,10.901-10.895,10.903s-10.901-4.875-10.903-10.895v-.008c0-6.053,4.587-10.923,10.497-10.923,2.154,.037,4.227,.823,5.864,2.224l-.002-10.64Zm-5.486,25.06c3.055,0,5.532-2.477,5.532-5.532s-2.477-5.532-5.532-5.532-5.532,2.477-5.532,5.532h0c-.013,3.042,2.442,5.519,5.484,5.532,.016,0,.032,0,.047,0h0Z" fill="#fff"/><path id="Pfad_134" d="M65.709,67.303c.093,5.939-4.646,10.828-10.585,10.921-5.939,.093-10.828-4.646-10.921-10.585-.093-5.939,4.646-10.828,10.585-10.921,.056,0,.112-.001,.168-.001,5.851-.087,10.665,4.585,10.753,10.436,0,.05,.001,.1,.001,.15Zm-5.185,0c0-3.145-2.125-5.823-5.568-5.823s-5.567,2.678-5.567,5.823,2.124,5.822,5.567,5.822,5.568-2.678,5.568-5.822h0Z" fill="#fff"/><path id="Pfad_135" d="M124.861,67.218c0,.381,0,1.147-.042,1.912h-15.045c.75,2.478,3.064,4.148,5.651,4.081,2.032,.037,4.004-.692,5.525-2.041l2.55,3.826c-2.283,1.857-5.133,2.877-8.076,2.892-5.846,.137-10.696-4.49-10.834-10.336-.002-.082-.003-.164-.003-.246,0-5.908,4.294-10.583,10.114-10.583,5.526-.006,10.159,4.289,10.159,10.496Zm-5.099-1.785c-.087-1.743-1.702-4.081-5.059-4.081-3.272,0-4.759,2.294-4.929,4.081h9.988Z" fill="#fff"/><path id="Pfad_136" d="M134.865,47.893h5.303v29.861h-5.303v-29.861Z" fill="#fff"/><path id="Pfad_137" d="M181.463,70.66l3.358,3.401c-2.079,2.435-5.124,3.834-8.327,3.823-5.844,.149-10.703-4.469-10.851-10.313-.149-5.844,4.469-10.703,10.313-10.851,.179-.005,.359-.005,.538,0,3.164-.022,6.178,1.346,8.245,3.74l-3.528,3.144c-1.192-1.356-2.912-2.131-4.718-2.125-3.215,.116-5.727,2.817-5.611,6.032,.11,3.052,2.559,5.501,5.611,5.611,1.961,.049,3.821-.872,4.97-2.463Z" fill="#fff"/><path id="Pfad_138" d="M151.502,56.737h5.348v21.017h-5.348v-21.017Z" fill="#fff"/><path id="Pfad_139" d="M208.679,56.737v1.487c-1.688-.99-3.611-1.509-5.568-1.503-5.844-.086-10.652,4.582-10.737,10.427-.086,5.844,4.583,10.652,10.427,10.737,.104,.002,.207,.002,.311,0,1.958,.004,3.882-.518,5.568-1.513v1.395h5.348v-21.03h-5.348Zm-5.568,16.388c-3.443,0-5.567-2.678-5.567-5.822s2.124-5.823,5.567-5.823,5.568,2.678,5.568,5.823-2.125,5.822-5.568,5.822h0Z" fill="#fff"/></svg>