<?xml version="1.0" encoding="UTF-8"?><svg id="Ebene_1" xmlns="http://www.w3.org/2000/svg" viewBox="0 0 89 123"><path id="Pfad_20" d="M59.827,83.941s34.819,4.5,26.554,28.546c0,0-38.6,20.23-84.145,.075,0,0-8.441-24.425,26.818-28.621,0,0,16.107,12.452,30.773,0Z" fill="none" stroke="#fff" stroke-miterlimit="10" stroke-width="2"/><path id="Pfad_21" d="M70.342,25.388l.351,9.349c0,3.6-11.632,6.519-25.982,6.519s-25.983-2.919-25.983-6.519v-8.722" fill="none" stroke="#fff" stroke-miterlimit="10" stroke-width="2"/><path id="Pfad_22" d="M79.291,16.119l-35.529,16.849L10.011,17.234,43.762,1.5l35.529,14.619Z" fill="none" stroke="#fff" stroke-miterlimit="10" stroke-width="2"/><path id="Pfad_23" d="M60.898,16.12l12.488,7.151,.107,10.982" fill="none" stroke="#fff" stroke-miterlimit="10" stroke-width="2"/><path id="Pfad_24" d="M83.128,43.755l-14.055,.624,6.663-7.5,7.392,6.876Z" fill="#fff" stroke="#fff" stroke-miterlimit="10"/><path id="Pfad_25" d="M20.194,41.098c-.255,2.772,.03,5.568,.839,8.232-2.048,1-3,3.873-2.138,6.994,.612,2.607,2.494,4.73,5.009,5.65,4.161,11.395,16.771,17.259,28.165,13.098,6.131-2.239,10.948-7.088,13.147-13.233,2.304-1.027,4.003-3.064,4.6-5.515,.926-3.367-.249-6.441-2.642-7.2,.87-2.444,1.378-5.003,1.506-7.595" fill="none" stroke="#fff" stroke-miterlimit="10" stroke-width="2"/></svg>