<?xml version="1.0" encoding="UTF-8"?><svg id="Ebene_1" xmlns="http://www.w3.org/2000/svg" viewBox="0 0 104 123"><path id="Pfad_26" d="M69.941,68.223s40.759,6.377,31.084,40.492c0,0-45.185,28.695-98.5,.106,0,0-9.881-34.647,31.393-40.6,0,.002,18.855,17.664,36.023,.002Z" fill="none" stroke="#fff" stroke-miterlimit="10" stroke-width="2"/><path id="Pfad_27" d="M74.688,36.15c5.542-23.524-5.882-24.918-5.882-24.918C64.459,1.032,50.512,1.503,50.512,1.503,24.567,5.61,26.612,27.903,28.389,36.438c-2.055,1.424-3.006,5.493-2.145,9.92,.785,4.031,2.839,7.156,5.026,8.014,2.882,11.889,11.059,20.468,20.705,20.468,9.7,0,17.912-8.671,20.752-20.659,2.028-1.068,3.877-4.047,4.612-7.823,.93-4.776-.25-9.137-2.651-10.208Z" fill="none" stroke="#fff" stroke-miterlimit="10" stroke-width="2"/></svg>