<?xml version="1.0" encoding="UTF-8"?><svg id="Ebene_1" xmlns="http://www.w3.org/2000/svg" viewBox="0 0 40 40"><circle cx="20" cy="20" r="18.5" fill="none" stroke="#c8102e" stroke-width="2"/><path id="Pfad_312" d="M22.383,15.676c0,1.269-.54,1.782-1.539,2.646-1.755,1.512-2.43,1.89-2.43,3.645v2h3.213v-1.379c0-.972,.054-1.026,1-1.863,1.755-1.539,3-2.673,3-5.049-.072-3.056-2.607-5.474-5.662-5.403-.03,0-.059,.002-.089,.003-2.721,.035-5.114,1.808-5.94,4.4l2.754,1.269s.864-2.592,3.186-2.592c1.326-.03,2.436,.999,2.507,2.323Zm-4.483,12.015c-.007,1.171,.936,2.126,2.107,2.133,.009,0,.018,0,.027,0,1.171,.007,2.126-.936,2.133-2.107,0-.009,0-.017,0-.026,.007-1.171-.936-2.126-2.107-2.133-.009,0-.017,0-.026,0-1.171-.008-2.126,.935-2.134,2.106,0,.009,0,.018,0,.027Z" fill="#c8102e"/></svg>