<?xml version="1.0" encoding="UTF-8"?><svg id="Ebene_1" xmlns="http://www.w3.org/2000/svg" viewBox="0 0 15 15"><path id="search" d="M6.45,12.723c.703,.004,1.401-.115,2.063-.35,.643-.229,1.246-.559,1.787-.976l3.45,3.463,1.1-1.12-3.445-3.445c.417-.541,.747-1.144,.976-1.787,.235-.662,.354-1.36,.35-2.063,.005-.843-.165-1.677-.5-2.45-.32-.745-.776-1.423-1.345-2-.573-.578-1.254-1.038-2.003-1.355-.767-.334-1.596-.504-2.433-.5-.843-.005-1.677,.165-2.45,.5C2.496,1.286,1.296,2.486,.65,3.99c-.335,.773-.505,1.607-.5,2.45-.004,.837,.166,1.666,.5,2.433,.316,.751,.776,1.433,1.354,2.008,.577,.569,1.255,1.025,2,1.345,.772,.333,1.605,.503,2.446,.497ZM6.45,1.723c.627-.005,1.248,.12,1.824,.368,.56,.233,1.069,.573,1.5,1,.43,.433,.777,.941,1.023,1.5,.248,.585,.374,1.214,.37,1.849,.005,.627-.12,1.248-.368,1.824-.492,1.13-1.394,2.032-2.524,2.524-.576,.248-1.197,.373-1.824,.368-.633,.004-1.259-.121-1.842-.368-.559-.246-1.067-.593-1.5-1.023-.427-.431-.767-.94-1-1.5-.25-.576-.378-1.197-.375-1.825-.004-.633,.121-1.259,.368-1.842,.471-1.134,1.372-2.035,2.506-2.505,.583-.247,1.209-.372,1.842-.369h0Z" fill="#7c878e"/></svg>