<?xml version="1.0" encoding="UTF-8"?><svg id="Ebene_1" xmlns="http://www.w3.org/2000/svg" viewBox="0 0 132 123"><path id="Pfad_28" d="M69.693,69.904s40.76,6.174,31.084,39.215c0,0-45.186,27.791-98.5,.1,0,0-9.881-33.555,31.393-39.318-.002,.003,18.855,17.109,36.023,.003Z" fill="none" stroke="#fff" stroke-miterlimit="10" stroke-width="2"/><path id="Pfad_29" d="M75.135,35.058c5.709-22.781-6.057-24.132-6.057-24.132C64.599,1.045,50.232,1.504,50.232,1.504c-26.725,3.977-24.623,25.566-22.787,33.832-2.119,1.38-3.1,5.32-2.211,9.608,.809,3.9,2.926,6.93,5.178,7.762,2.969,11.515,11.393,19.823,21.326,19.823,9.99,0,18.453-8.4,21.377-20.009,2.09-1.034,3.994-3.919,4.752-7.576,.957-4.625-.258-8.849-2.732-9.886Z" fill="none" stroke="#fff" stroke-miterlimit="10" stroke-width="2"/><path id="Pfad_30" d="M74.804,15.471h55.955V52.56h-57.645" fill="none" stroke="#fff" stroke-miterlimit="10" stroke-width="2"/><line id="Linie_13" x1="80.579" y1="26.886" x2="121.842" y2="26.776" fill="none" stroke="#fff" stroke-miterlimit="10" stroke-width="2"/><line id="Linie_14" x1="80.579" y1="31.991" x2="121.842" y2="31.881" fill="none" stroke="#fff" stroke-miterlimit="10" stroke-width="2"/><line id="Linie_15" x1="80.581" y1="36.731" x2="121.844" y2="36.621" fill="none" stroke="#fff" stroke-miterlimit="10" stroke-width="2"/><line id="Linie_16" x1="80.582" y1="41.473" x2="121.845" y2="41.363" fill="none" stroke="#fff" stroke-miterlimit="10" stroke-width="2"/></svg>