<?xml version="1.0" encoding="UTF-8"?><svg id="Ebene_1" xmlns="http://www.w3.org/2000/svg" viewBox="0 0 42 42"><circle id="Ellipse_9" cx="21.005" cy="20.7" r="8.095" fill="none" stroke="#c8102e" stroke-miterlimit="10" stroke-width="2"/><path id="Pfad_82" d="M40.531,24.889v-7.771h-4.739c-.331-1.354-.849-2.656-1.537-3.869l3.305-3.3-5.5-5.495-3.236,3.236c-1.227-.737-2.553-1.296-3.938-1.661V1.477h-7.771V6.023c-1.385,.365-2.71,.924-3.938,1.661l-3.236-3.236-5.495,5.495,3.3,3.3c-.689,1.213-1.206,2.515-1.538,3.869H1.469v7.771H6.344c.364,1.292,.898,2.531,1.589,3.682l-3.492,3.492,5.495,5.495,3.561-3.561c1.136,.645,2.35,1.141,3.613,1.474v5.059h7.771v-5.059c1.263-.333,2.477-.829,3.613-1.474l3.561,3.561,5.5-5.495-3.492-3.492c.69-1.152,1.224-2.39,1.588-3.682l4.88,.006Z" fill="none" stroke="#c8102e" stroke-miterlimit="10" stroke-width="2"/></svg>