<svg id="Gruppe_759" data-name="Gruppe 759" xmlns="http://www.w3.org/2000/svg" width="220" height="109.835" viewBox="0 0 220 109.835">
  <path id="Pfad_123" data-name="Pfad 123" d="M221.976,196.01h2.064v15.231h7.714v1.965h-9.778Z" transform="translate(-113.954 -109.316)" fill="#f0f0f0"/>
  <path id="Pfad_124" data-name="Pfad 124" d="M253.688,209.669v7.468H251.8v-1.646a4.8,4.8,0,0,1-3.856,1.941,4.038,4.038,0,0,1-4.225-3.882c0-2.211,1.94-3.784,4.5-3.784a6.352,6.352,0,0,1,3.415.934v-.614a2.587,2.587,0,0,0-2.875-2.678,7.857,7.857,0,0,0-3.39.958l-.859-1.72a8.452,8.452,0,0,1,4.249-1.154C252.091,205.493,253.688,207.557,253.688,209.669Zm-2.064,4.226v-1.6a5.439,5.439,0,0,0-2.973-.81c-1.768,0-2.874.884-2.874,2.064,0,1.474,1.327,2.063,2.6,2.063A4.358,4.358,0,0,0,251.624,213.895Z" transform="translate(-122.966 -113.247)" fill="#f0f0f0"/>
  <path id="Pfad_125" data-name="Pfad 125" d="M278.739,209.841v7.3h-2.064v-6.952a2.516,2.516,0,0,0-2.726-2.776,3.575,3.575,0,0,0-2.825,1.916v7.812h-2.064v-11.35h1.917v1.6a4.037,4.037,0,0,1,3.488-1.892A4.131,4.131,0,0,1,278.739,209.841Z" transform="translate(-133.472 -113.247)" fill="#f0f0f0"/>
  <path id="Pfad_126" data-name="Pfad 126" d="M301.721,215.713a4.567,4.567,0,0,1-3.66,1.72,5.99,5.99,0,0,1,0-11.94,4.418,4.418,0,0,1,3.832,1.941v-1.646h1.892v11.4c0,3.931-2.678,5.9-5.97,5.9a6.924,6.924,0,0,1-4.962-2.161l1.253-1.548a5.009,5.009,0,0,0,3.709,1.794,3.538,3.538,0,0,0,3.906-3.881Zm0-6.387a4.085,4.085,0,0,0-3.341-1.916,4.065,4.065,0,0,0,0,8.107,4.034,4.034,0,0,0,3.341-1.916Z" transform="translate(-143.214 -113.247)" fill="#f0f0f0"/>
  <path id="Pfad_127" data-name="Pfad 127" d="M320.045,213.292V206h2.063v6.953a2.517,2.517,0,0,0,2.727,2.776,3.416,3.416,0,0,0,2.825-1.867V206h2.064v11.35h-1.916V215.6a4.022,4.022,0,0,1-3.488,2.04A4.131,4.131,0,0,1,320.045,213.292Z" transform="translate(-154.609 -113.455)" fill="#f0f0f0"/>
  <path id="Pfad_128" data-name="Pfad 128" d="M353.939,209.669v7.468h-1.892v-1.646a4.8,4.8,0,0,1-3.856,1.941,4.038,4.038,0,0,1-4.225-3.882c0-2.211,1.94-3.784,4.5-3.784a6.352,6.352,0,0,1,3.415.934v-.614A2.587,2.587,0,0,0,349,207.409a7.857,7.857,0,0,0-3.39.958l-.86-1.72a8.456,8.456,0,0,1,4.25-1.154C352.342,205.493,353.939,207.557,353.939,209.669Zm-2.064,4.226v-1.6a5.439,5.439,0,0,0-2.973-.81c-1.768,0-2.874.884-2.874,2.064,0,1.474,1.327,2.063,2.6,2.063A4.358,4.358,0,0,0,351.875,213.895Z" transform="translate(-164.525 -113.247)" fill="#f0f0f0"/>
  <path id="Pfad_129" data-name="Pfad 129" d="M377.131,215.713a4.567,4.567,0,0,1-3.66,1.72,5.99,5.99,0,0,1,0-11.94,4.418,4.418,0,0,1,3.832,1.941v-1.646h1.892v11.4c0,3.931-2.678,5.9-5.97,5.9a6.922,6.922,0,0,1-4.962-2.161l1.252-1.548a5.008,5.008,0,0,0,3.709,1.794,3.538,3.538,0,0,0,3.906-3.881Zm0-6.387a4.085,4.085,0,0,0-3.341-1.916,4.065,4.065,0,0,0,0,8.107,4.034,4.034,0,0,0,3.341-1.916Z" transform="translate(-174.476 -113.247)" fill="#f0f0f0"/>
  <path id="Pfad_130" data-name="Pfad 130" d="M405.313,211.537a6.435,6.435,0,0,1-.025.663h-9.163a3.828,3.828,0,0,0,3.906,3.317,4.383,4.383,0,0,0,3.415-1.67l1.3,1.351a6.324,6.324,0,0,1-4.717,2.236,5.8,5.8,0,0,1-5.92-5.97,5.643,5.643,0,0,1,5.675-5.97C402.955,205.493,405.313,207.876,405.313,211.537ZM403.3,210.48a3.417,3.417,0,0,0-3.513-3.071,3.52,3.52,0,0,0-3.612,3.071Z" transform="translate(-185.313 -113.247)" fill="#f0f0f0"/>
  <circle id="Ellipse_18" data-name="Ellipse 18" cx="5.985" cy="5.985" r="5.985" transform="translate(152.243 34.052)" fill="#cb001b"/>
  <path id="Pfad_131" data-name="Pfad 131" d="M220.065,48.089c-7.47.273-15.852,8.382-15.852,8.29.091-4.646-3.371-9.11-9.748-8.108S180.071,57.29,179.98,57.29a8.946,8.946,0,0,0-5.466-8.655c-5-1.887-12.42-.483-22.016,10.143C144.949,67.136,125.776,89,118.555,97.19a23.229,23.229,0,0,1,6.6,5.855l22.944-28.354s13.3-17.433,20.589-19.131c6.038-1.406,6.979,4.367,4.737,9.748C168.86,76.251,157.66,94.46,157.66,94.46s15.67-20.316,18.312-23.686,15.852-19.951,21.683-14.121c5.682,5.682-11.387,30.246-11.387,30.246l8.745-11.3s17.765-23.322,25.509-20.407-5.011,24.233-5.011,24.142c0,0,7.639-5.822,11.752-18.312C229.143,55.314,227.535,47.815,220.065,48.089ZM88.324,131.31,70.042,151.939h16l11.063-13.533A23.163,23.163,0,0,1,88.324,131.31Z" transform="translate(-50.969 -47.927)" fill="#fff"/>
  <path id="Pfad_132" data-name="Pfad 132" d="M37.466,140.606c0-5.021,4.045-9.261,10.09-9.261a10.505,10.505,0,0,1,7.6,2.973,10.587,10.587,0,0,1,7.6-2.973c6.093,0,9.944,4.24,9.944,9.261l0,22.058H67.147l0-21.229c0-3.461-1.754-5.361-4.483-5.361-2.682,0-4.778,1.9-4.778,5.361l0,21.229H52.281l0-21.229c0-3.461-2.1-5.361-4.825-5.361-2.682,0-4.437,1.9-4.437,5.361l0,21.229H37.463Z" transform="translate(-37.463 -82.509)" fill="#fff"/>
  <path id="Pfad_133" data-name="Pfad 133" d="M183.719,132.261h5.606V152.2a11.236,11.236,0,1,1-22.472,0,10.961,10.961,0,0,1,10.821-11.261,9.551,9.551,0,0,1,6.045,2.292Zm-5.655,25.834a5.7,5.7,0,1,0-5.7-5.7A5.679,5.679,0,0,0,178.064,158.095Z" transform="translate(-91.102 -82.888)" fill="#fff"/>
  <path id="Pfad_134" data-name="Pfad 134" d="M136.068,158.714A11.087,11.087,0,1,1,124.982,147.8,10.922,10.922,0,0,1,136.068,158.714Zm-5.346,0a5.745,5.745,0,1,0-5.74,6A5.686,5.686,0,0,0,130.723,158.714Z" transform="translate(-69.15 -89.332)" fill="#fff"/>
  <path id="Pfad_135" data-name="Pfad 135" d="M241.128,158.626c0,.395,0,1.183-.043,1.972h-15.51A5.925,5.925,0,0,0,231.4,164.8a8.355,8.355,0,0,0,5.7-2.1l2.629,3.944a13.3,13.3,0,0,1-8.325,2.979,10.915,10.915,0,0,1-11.171-10.909c0-6.091,4.426-10.909,10.427-10.909A10.444,10.444,0,0,1,241.128,158.626Zm-5.256-1.839c-.09-1.8-1.754-4.206-5.216-4.206a4.776,4.776,0,0,0-5.081,4.206Z" transform="translate(-113.23 -89.332)" fill="#fff"/>
  <path id="Pfad_136" data-name="Pfad 136" d="M273.542,132.261h5.467v30.783h-5.467Z" transform="translate(-135.331 -82.888)" fill="#fff"/>
  <path id="Pfad_137" data-name="Pfad 137" d="M344.053,162.175l3.461,3.506a11.24,11.24,0,0,1-8.587,3.942,10.912,10.912,0,1,1,0-21.818,11.131,11.131,0,0,1,8.5,3.856L343.79,154.9a6.452,6.452,0,0,0-4.863-2.191,6.006,6.006,0,0,0,0,12.006A6.132,6.132,0,0,0,344.053,162.175Z" transform="translate(-157.805 -89.332)" fill="#fff"/>
  <path id="Pfad_138" data-name="Pfad 138" d="M302.837,147.834h5.512V169.5h-5.512Z" transform="translate(-147.476 -89.344)" fill="#fff"/>
  <path id="Pfad_139" data-name="Pfad 139" d="M391.6,147.822v1.533a11.289,11.289,0,0,0-5.74-1.55,10.911,10.911,0,1,0,0,21.818,11.25,11.25,0,0,0,5.74-1.56V169.5h5.513v-21.68Zm-5.74,16.895a6.009,6.009,0,1,1,5.74-6A5.684,5.684,0,0,1,385.864,164.717Z" transform="translate(-177.3 -89.332)" fill="#fff"/>
</svg>
