<svg xmlns="http://www.w3.org/2000/svg" xmlns:xlink="http://www.w3.org/1999/xlink" width="214.513" height="100.517" viewBox="0 0 214.513 100.517">
  <defs>
    <clipPath id="clip-path">
      <path id="Pfad_106" data-name="Pfad 106" d="M0,20.583H214.513V-79.934H0Z" transform="translate(0 79.934)" fill="none"/>
    </clipPath>
  </defs>
  <g id="Gruppe_573" data-name="Gruppe 573" transform="translate(0 79.934)">
    <g id="Gruppe_580" data-name="Gruppe 580" transform="translate(0 -79.934)" clip-path="url(#clip-path)">
      <g id="Gruppe_573-2" data-name="Gruppe 573" transform="translate(146.732 32.82)">
        <path id="Pfad_99" data-name="Pfad 99" d="M0,1.181A5.769,5.769,0,1,1,5.768,6.949,5.768,5.768,0,0,1,0,1.181" transform="translate(0 4.587)" fill="#f23029"/>
      </g>
      <g id="Gruppe_574" data-name="Gruppe 574" transform="translate(18.381 0)">
        <path id="Pfad_100" data-name="Pfad 100" d="M29.609.032C22.408.295,14.33,8.11,14.33,8.022c.088-4.478-3.248-8.78-9.395-7.814S-8.938,8.9-9.027,8.9A8.621,8.621,0,0,0-14.294.559c-4.82-1.818-11.971-.465-21.22,9.776-7.275,8.056-25.755,29.126-32.715,37.022A22.413,22.413,0,0,1-61.873,53l22.114-27.329S-26.943,8.87-19.914,7.232c5.818-1.356,6.726,4.209,4.566,9.395-4.395,10.548-15.191,28.1-15.191,28.1s15.1-19.58,17.649-22.83S2.389,2.666,8.009,8.286C13.485,13.762-2.968,37.437-2.968,37.437L5.462,26.55S22.584,4.071,30.048,6.881,25.219,30.237,25.219,30.15c0,0,7.363-5.612,11.326-17.65C38.359,7,36.809-.231,29.609.032M-97.367,80.243l-17.62,19.882h15.422L-88.9,87.082a22.326,22.326,0,0,1-8.464-6.84" transform="translate(114.987 0.124)" fill="#6f838e"/>
      </g>
      <g id="Gruppe_575" data-name="Gruppe 575" transform="translate(0 47.07)">
        <path id="Pfad_101" data-name="Pfad 101" d="M0,1.828C0-3.011,3.9-7.1,9.724-7.1a10.13,10.13,0,0,1,7.33,2.865A10.207,10.207,0,0,1,24.383-7.1c5.873,0,9.585,4.087,9.585,8.926V22.922H28.611V2.626c0-3.335-1.69-5.167-4.321-5.167-2.585,0-4.6,1.832-4.6,5.167v20.3h-5.4V2.626c0-3.335-2.021-5.167-4.651-5.167-2.584,0-4.275,1.832-4.275,5.167v20.3H0Z" transform="translate(0 7.098)" fill="#182632"/>
      </g>
      <g id="Gruppe_576" data-name="Gruppe 576" transform="translate(73.008 47.586)">
        <path id="Pfad_102" data-name="Pfad 102" d="M3.329,0h5.4V19.216A10.857,10.857,0,0,1-2.123,30.067a10.846,10.846,0,0,1-10.8-10.851A10.564,10.564,0,0,1-2.5,8.362a9.212,9.212,0,0,1,5.827,2.208ZM-2.123,24.9a5.474,5.474,0,0,0,5.5-5.5,5.474,5.474,0,0,0-5.5-5.5,5.473,5.473,0,0,0-5.5,5.5,5.472,5.472,0,0,0,5.5,5.5" transform="translate(12.927)" fill="#182632"/>
      </g>
      <g id="Gruppe_577" data-name="Gruppe 577" transform="translate(192.855 55.948)">
        <path id="Pfad_103" data-name="Pfad 103" d="M3.329,3.973A8.557,8.557,0,0,1-2.451,6.182,10.434,10.434,0,0,1-12.927-4.576,10.514,10.514,0,0,1-2.451-15.429a8.444,8.444,0,0,1,5.732,2.208v-1.738h5.45V5.712h-5.4Zm-5.4-2.865a5.5,5.5,0,0,0,5.5-5.5,5.5,5.5,0,0,0-5.5-5.5,5.473,5.473,0,0,0-5.5,5.5,5.473,5.473,0,0,0,5.5,5.5" transform="translate(12.927 15.429)" fill="#182632"/>
      </g>
      <g id="Gruppe_578" data-name="Gruppe 578" transform="translate(43.127 56.356)">
        <path id="Pfad_104" data-name="Pfad 104" d="M4.376,2.153A10.528,10.528,0,0,1-6.309,12.668,10.527,10.527,0,0,1-16.993,2.153,10.5,10.5,0,0,1-6.309-8.362,10.5,10.5,0,0,1,4.376,2.153m-5.152,0A5.48,5.48,0,0,0-6.309-3.633a5.479,5.479,0,0,0-5.532,5.786A5.479,5.479,0,0,0-6.309,7.939,5.48,5.48,0,0,0-.776,2.153" transform="translate(16.993 8.362)" fill="#182632"/>
      </g>
      <g id="Gruppe_579" data-name="Gruppe 579" transform="translate(103.126 56.357)">
        <path id="Pfad_105" data-name="Pfad 105" d="M4.125,2.136c0,.381,0,1.139-.041,1.9H-10.866A5.712,5.712,0,0,0-5.25,8.09,8.053,8.053,0,0,0,.239,6.063l2.534,3.8A12.819,12.819,0,0,1-5.25,12.735,10.521,10.521,0,0,1-16.018,2.22c0-5.87,4.265-10.514,10.05-10.514A10.066,10.066,0,0,1,4.125,2.136M-.942.363c-.086-1.732-1.69-4.054-5.026-4.054a4.6,4.6,0,0,0-4.9,4.054Z" transform="translate(16.018 8.294)" fill="#182632"/>
      </g>
    </g>
    <path id="Pfad_107" data-name="Pfad 107" d="M105.932-42.092h5.27V-12.8h-5.27Z" transform="translate(27.277 9.744)" fill="#182632"/>
    <g id="Gruppe_582" data-name="Gruppe 582" transform="translate(0 -79.934)" clip-path="url(#clip-path)">
      <g id="Gruppe_581" data-name="Gruppe 581" transform="translate(163.799 56.356)">
        <path id="Pfad_108" data-name="Pfad 108" d="M3.217,2.836,6.553,6.215a10.832,10.832,0,0,1-8.277,3.8A10.573,10.573,0,0,1-12.492-.5,10.547,10.547,0,0,1-1.724-11.015,10.726,10.726,0,0,1,6.469-7.3l-3.5,3.125A6.22,6.22,0,0,0-1.724-6.286,5.547,5.547,0,0,0-7.339-.5,5.547,5.547,0,0,0-1.724,5.286a5.911,5.911,0,0,0,4.941-2.45" transform="translate(12.492 11.015)" fill="#182632"/>
      </g>
    </g>
    <path id="Pfad_110" data-name="Pfad 110" d="M119.077-34.715h5.313V-14.7h-5.313Z" transform="translate(30.662 11.644)" fill="#182632"/>
    <g id="Gruppe_583" data-name="Gruppe 583" transform="translate(78.7 3.688)">
      <path id="Pfad_111" data-name="Pfad 111" d="M1.336,0-5.189,16.609h2.135l1.733-4.483H5.844l1.733,4.483H9.665L3.186,0Zm.926,2.847,2.847,7.379H-.585Z" transform="translate(5.189)" fill="#182632"/>
    </g>
    <g id="Gruppe_594" data-name="Gruppe 594" transform="translate(0 -79.934)" clip-path="url(#clip-path)">
      <g id="Gruppe_584" data-name="Gruppe 584" transform="translate(96.213 88.985)">
        <path id="Pfad_112" data-name="Pfad 112" d="M.282,1.628A4.23,4.23,0,0,0,3.6,3.407c1.115,0,2.373-.474,2.373-1.352C5.977,1.106,5.17.632,3.485.3,1.136-.176-.526-1.1-.526-3.165c0-1.591,1.591-3.156,4.034-3.156A5.7,5.7,0,0,1,7.566-4.66L6.261-3.308a4.026,4.026,0,0,0-2.753-1.21c-1.4,0-2.087.688-2.087,1.4,0,.83.854,1.281,2.657,1.661,2.089.451,3.868,1.234,3.868,3.464,0,2.111-2.231,3.2-4.342,3.2a6.007,6.007,0,0,1-4.7-2.3Z" transform="translate(1.094 6.321)" fill="#182632"/>
      </g>
      <g id="Gruppe_585" data-name="Gruppe 585" transform="translate(108.671 88.985)">
        <path id="Pfad_113" data-name="Pfad 113" d="M.282,1.628A4.23,4.23,0,0,0,3.6,3.407c1.115,0,2.373-.474,2.373-1.352C5.977,1.106,5.17.632,3.486.3,1.136-.176-.526-1.1-.526-3.165c0-1.591,1.591-3.156,4.034-3.156A5.7,5.7,0,0,1,7.566-4.66L6.261-3.308a4.026,4.026,0,0,0-2.753-1.21c-1.4,0-2.087.688-2.087,1.4,0,.83.854,1.281,2.657,1.661,2.089.451,3.868,1.234,3.868,3.464,0,2.111-2.231,3.2-4.342,3.2a6.007,6.007,0,0,1-4.7-2.3Z" transform="translate(1.094 6.321)" fill="#182632"/>
      </g>
      <g id="Gruppe_586" data-name="Gruppe 586" transform="translate(121.08 88.985)">
        <path id="Pfad_114" data-name="Pfad 114" d="M2.313,1.181A5.615,5.615,0,0,1-3.335,6.948,5.615,5.615,0,0,1-8.982,1.181,5.614,5.614,0,0,1-3.335-4.585,5.614,5.614,0,0,1,2.313,1.181m-1.993,0A3.677,3.677,0,0,0-3.335-2.735,3.677,3.677,0,0,0-6.989,1.181,3.677,3.677,0,0,0-3.335,5.1,3.677,3.677,0,0,0,.32,1.181" transform="translate(8.982 4.585)" fill="#182632"/>
      </g>
      <g id="Gruppe_587" data-name="Gruppe 587" transform="translate(135.556 88.985)">
        <path id="Pfad_115" data-name="Pfad 115" d="M2.075,1.929A5.91,5.91,0,0,1-2.41,4.042,5.613,5.613,0,0,1-8.057-1.725,5.627,5.627,0,0,1-2.41-7.491,5.878,5.878,0,0,1,1.956-5.522L.6-4.311A4.05,4.05,0,0,0-2.41-5.64,3.676,3.676,0,0,0-6.065-1.725,3.677,3.677,0,0,0-2.41,2.19,4.022,4.022,0,0,0,.793.624Z" transform="translate(8.057 7.491)" fill="#182632"/>
      </g>
      <g id="Gruppe_588" data-name="Gruppe 588" transform="translate(149.295 84.405)">
        <path id="Pfad_116" data-name="Pfad 116" d="M.277,0A1.367,1.367,0,0,1,1.629,1.352,1.367,1.367,0,0,1,.277,2.7,1.367,1.367,0,0,1-1.075,1.352,1.367,1.367,0,0,1,.277,0m-1,4.864H1.274V15.827H-.719Z" transform="translate(1.075)" fill="#182632"/>
      </g>
      <g id="Gruppe_589" data-name="Gruppe 589" transform="translate(156.176 88.984)">
        <path id="Pfad_117" data-name="Pfad 117" d="M1.973.826V8.04H.146V6.45A4.633,4.633,0,0,1-3.58,8.325,3.9,3.9,0,0,1-7.661,4.576c0-2.136,1.875-3.654,4.342-3.654a6.137,6.137,0,0,1,3.3.9V1.23A2.5,2.5,0,0,0-2.8-1.357a7.591,7.591,0,0,0-3.275.926L-6.9-2.093A8.162,8.162,0,0,1-2.8-3.208c3.227,0,4.77,1.993,4.77,4.034M-.02,4.908V3.365a5.25,5.25,0,0,0-2.871-.783c-1.709,0-2.777.855-2.777,1.994,0,1.423,1.281,1.993,2.515,1.993A4.211,4.211,0,0,0-.02,4.908" transform="translate(7.661 3.208)" fill="#182632"/>
      </g>
      <g id="Gruppe_590" data-name="Gruppe 590" transform="translate(169.56 85.924)">
        <path id="Pfad_118" data-name="Pfad 118" d="M0,.685H2.135V-2.66H4.128V.685H7.545v1.8H4.128V8.4a1.467,1.467,0,0,0,1.591,1.684,2.607,2.607,0,0,0,1.257-.45l.736,1.637a4.519,4.519,0,0,1-2.279.664,3.205,3.205,0,0,1-3.3-3.441v-6H0Z" transform="translate(0 2.66)" fill="#182632"/>
      </g>
      <g id="Gruppe_591" data-name="Gruppe 591" transform="translate(181.093 84.405)">
        <path id="Pfad_119" data-name="Pfad 119" d="M.277,0A1.367,1.367,0,0,1,1.629,1.352,1.367,1.367,0,0,1,.277,2.7,1.367,1.367,0,0,1-1.075,1.352,1.367,1.367,0,0,1,.277,0m-1,4.864H1.274V15.827H-.719Z" transform="translate(1.075)" fill="#182632"/>
      </g>
      <g id="Gruppe_592" data-name="Gruppe 592" transform="translate(187.736 88.985)">
        <path id="Pfad_120" data-name="Pfad 120" d="M2.313,1.181A5.615,5.615,0,0,1-3.335,6.948,5.615,5.615,0,0,1-8.982,1.181,5.614,5.614,0,0,1-3.335-4.585,5.614,5.614,0,0,1,2.313,1.181m-1.993,0A3.677,3.677,0,0,0-3.335-2.735,3.677,3.677,0,0,0-6.989,1.181,3.677,3.677,0,0,0-3.335,5.1,3.677,3.677,0,0,0,.32,1.181" transform="translate(8.982 4.585)" fill="#182632"/>
      </g>
      <g id="Gruppe_593" data-name="Gruppe 593" transform="translate(202.97 88.984)">
        <path id="Pfad_121" data-name="Pfad 121" d="M1.914.86V7.907H-.079V1.192A2.431,2.431,0,0,0-2.713-1.489,3.453,3.453,0,0,0-5.442.362V7.907H-7.435V-3.056h1.851v1.543A3.9,3.9,0,0,1-2.214-3.34,3.99,3.99,0,0,1,1.914.86" transform="translate(7.435 3.34)" fill="#182632"/>
      </g>
    </g>
  </g>
</svg>
