<?xml version="1.0" encoding="UTF-8"?><svg id="Ebene_1" xmlns="http://www.w3.org/2000/svg" viewBox="0 0 226 63"><path id="Pfad_272" d="M.259,62.765v-4.415l56.912-.027,3.514,3.149,3.512-3.149,22.211,.027v4.415H.259Z" fill="#ba0023"/><path id="Pfad_273" d="M48.072,43.078c-8.5-.003-15.389-6.896-15.386-15.396,.003-8.496,6.89-15.383,15.386-15.386h10.78c-1.554,1.627-2.85,3.481-3.843,5.5l-6.935-.03c-5.479,.003-9.918,4.448-9.915,9.927,.003,5.474,4.44,9.911,9.915,9.915h5.061v5.47h-5.063Z" fill="#333f48"/><path id="Pfad_274" d="M58.019,55.796V25.713c.008-7.439,6.036-13.468,13.475-13.477h1.372c7.439,.009,13.467,6.038,13.475,13.477v4.021c-.009,7.438-6.037,13.466-13.475,13.475h-1.372c-2.565-.002-5.075-.74-7.233-2.126l-.87-.556v15.269l-2.687,2.527-2.685-2.527Zm13.475-38.187c-4.471,.007-8.093,3.629-8.1,8.1v4.021c.007,4.471,3.629,8.093,8.1,8.1h1.372c4.471-.007,8.093-3.629,8.1-8.1v-4.021c-.007-4.471-3.629-8.093-8.1-8.1h-1.372Z" fill="#333f48"/><path id="Pfad_275" d="M13.801,43.298c-7.439-.008-13.467-6.036-13.475-13.475v-4.023c.009-7.438,6.037-13.466,13.475-13.474h1.371c2.565,0,5.075,.736,7.234,2.121l.87,.556V.06h5.371V29.823c-.008,7.439-6.036,13.467-13.475,13.475h-1.371Zm0-25.6c-4.471,.007-8.093,3.629-8.1,8.1v4.023c.007,4.471,3.629,8.093,8.1,8.1h1.371c4.471-.007,8.093-3.629,8.1-8.1v-4.023c-.007-4.471-3.629-8.093-8.1-8.1h-1.371Z" fill="#333f48"/><path id="Pfad_276" d="M115.936,18.221c0,3.782-2.415,6.553-6.477,6.553h-3.763V11.674h3.763c4.062-.005,6.477,2.766,6.477,6.547Zm-1.685,0c0-2.789-1.685-5.055-4.887-5.055h-2.1v10.109h2.1c3.203,0,4.888-2.265,4.888-5.054h0Z" fill="#333f48"/><path id="Pfad_277" d="M119.662,12.287c.589,0,1.067,.478,1.067,1.067s-.478,1.067-1.067,1.067-1.067-.478-1.067-1.067h0c.007-.587,.48-1.061,1.067-1.067Zm-.786,3.841h1.572v8.649h-1.572v-8.649Z" fill="#333f48"/><path id="Pfad_278" d="M124.399,22.171c.606,.851,1.576,1.37,2.621,1.4,.88,0,1.872-.374,1.872-1.067,0-.749-.636-1.123-1.966-1.385-1.853-.375-3.164-1.1-3.164-2.733,0-1.254,1.254-2.49,3.183-2.49,1.199-.008,2.351,.464,3.2,1.31l-1.03,1.067c-.573-.586-1.351-.928-2.171-.954-1.1,0-1.648,.543-1.648,1.1,0,.655,.674,1.011,2.1,1.31,1.647,.356,3.051,.974,3.051,2.733,0,1.666-1.76,2.527-3.426,2.527-1.448-.007-2.814-.676-3.707-1.816l1.085-1.002Z" fill="#333f48"/><path id="Pfad_279" d="M132.393,16.125h1.685v-2.64h1.573v2.64h2.7v1.423h-2.7v4.661c-.097,.632,.336,1.223,.968,1.321,.095,.015,.19,.017,.286,.008,.356-.03,.698-.153,.992-.356l.581,1.292c-.543,.332-1.164,.513-1.8,.524-1.396,.043-2.563-1.054-2.606-2.45-.003-.088,0-.176,.006-.264v-4.736h-1.685v-1.423Z" fill="#333f48"/><path id="Pfad_280" d="M146.055,16.125l-.58,1.423c-.312-.139-.651-.203-.992-.188-.88,.084-1.642,.645-1.984,1.46v5.953h-1.573v-8.649h1.46v1.329c.474-.908,1.392-1.499,2.415-1.554,.428,0,.853,.077,1.254,.226Z" fill="#333f48"/><path id="Pfad_281" d="M149.111,12.287c.589,0,1.067,.478,1.067,1.067s-.478,1.067-1.067,1.067-1.067-.478-1.067-1.067h0c.007-.587,.48-1.061,1.067-1.067Zm-.786,3.838h1.572v8.649h-1.572v-8.649Z" fill="#333f48"/><path id="Pfad_282" d="M162.215,20.449c.113,2.398-1.738,4.433-4.136,4.547l-.058,.002c-1.164,.045-2.268-.514-2.92-1.479v1.254h-1.441V10.621h1.573v6.572c.675-.846,1.708-1.324,2.789-1.292,2.399,.082,4.277,2.093,4.195,4.492l-.002,.056Zm-6.982,1.592c.537,.902,1.497,1.468,2.546,1.5,1.706-.144,2.972-1.644,2.828-3.35-.127-1.506-1.322-2.701-2.828-2.828-1.049,.032-2.009,.598-2.546,1.5v3.178Z" fill="#333f48"/><path id="Pfad_283" d="M164.762,21.685v-5.56h1.576v5.3c-.114,1.053,.648,1.999,1.701,2.113,.125,.013,.251,.015,.377,.003,.919-.06,1.738-.601,2.153-1.423v-5.991h1.569v8.649h-1.46v-1.329c-.543,.958-1.557,1.551-2.658,1.554-1.737,.063-3.197-1.294-3.261-3.031-.003-.095-.003-.19,.003-.285Z" fill="#333f48"/><path id="Pfad_284" d="M174.535,16.125h1.685v-2.64h1.573v2.64h2.7v1.423h-2.7v4.661c-.097,.632,.336,1.223,.968,1.321,.095,.015,.19,.017,.286,.008,.356-.03,.698-.153,.992-.356l.581,1.292c-.543,.332-1.164,.513-1.8,.524-1.396,.043-2.563-1.054-2.606-2.45-.003-.088,0-.176,.006-.264v-4.736h-1.685v-1.423Z" fill="#333f48"/><path id="Pfad_285" d="M191.009,20.505c.002,.169-.004,.337-.019,.505h-6.983c.199,1.48,1.484,2.572,2.977,2.528,1.015-.007,1.972-.476,2.6-1.273l.992,1.03c-.898,1.057-2.207,1.677-3.594,1.7-2.441,.052-4.461-1.885-4.513-4.325-.002-.075-.001-.149,0-.224-.138-2.371,1.673-4.404,4.044-4.542,.094-.005,.188-.008,.281-.007,2.417,.003,4.214,1.82,4.214,4.608Zm-1.535-.805c-.136-1.364-1.307-2.387-2.677-2.34-1.384-.047-2.576,.967-2.752,2.34h5.429Z" fill="#333f48"/><path id="Pfad_286" d="M199.94,17.193v-6.572h1.572v14.153h-1.441v-1.254c-.652,.965-1.756,1.524-2.92,1.479-2.513-.197-4.39-2.394-4.193-4.907,.176-2.239,1.954-4.017,4.193-4.193,1.082-.032,2.115,.448,2.789,1.294Zm0,1.666c-.537-.902-1.497-1.468-2.546-1.5-1.706,.144-2.972,1.644-2.828,3.35,.127,1.506,1.322,2.701,2.828,2.828,1.049-.032,2.009-.598,2.546-1.5v-3.178Z" fill="#333f48"/><path id="Pfad_287" d="M115.338,33.448c-.927-1.008-2.244-1.567-3.613-1.535-2.916,.257-5.071,2.829-4.814,5.745,.226,2.559,2.255,4.588,4.814,4.814,1.448-.026,2.82-.657,3.781-1.741l1.067,1.085c-1.248,1.358-3.004,2.138-4.849,2.153-3.743-.17-6.639-3.342-6.469-7.085,.159-3.505,2.964-6.31,6.469-6.469,1.779-.027,3.486,.7,4.7,2l-1.086,1.033Z" fill="#333f48"/><path id="Pfad_288" d="M127.207,39.419c-.051,2.461-2.087,4.415-4.548,4.364-2.461-.051-4.415-2.087-4.364-4.548,.05-2.426,2.031-4.366,4.457-4.365,2.446-.015,4.441,1.955,4.457,4.401,0,.049,0,.098-.002,.148Zm-1.573,0c-.11-1.592-1.49-2.794-3.082-2.684-1.592,.11-2.794,1.49-2.684,3.082,.105,1.516,1.365,2.692,2.884,2.691,1.602-.007,2.895-1.31,2.888-2.912,0-.059-.002-.118-.006-.177Z" fill="#333f48"/><path id="Pfad_289" d="M129.173,38.427h5v1.5h-5v-1.5Z" fill="#333f48"/><path id="Pfad_290" d="M140.555,37.847c-1.91-.88-3.594-1.76-3.594-3.988,.075-1.979,1.74-3.523,3.719-3.448l.062,.003c1.474,.012,2.856,.72,3.726,1.91l-1.18,.955c-.593-.823-1.532-1.327-2.546-1.367-1.122-.095-2.109,.738-2.204,1.86-.002,.029-.004,.058-.005,.087,0,1.329,1.123,1.853,2.92,2.677,2,.917,3.258,1.76,3.258,3.875,0,2.134-1.76,3.557-4.062,3.557-1.811,0-3.45-1.073-4.175-2.733l1.31-.786c.48,1.174,1.598,1.964,2.865,2.022,1.207,.141,2.3-.723,2.441-1.929,.005-.043,.009-.086,.011-.13,0-1.367-1.085-1.891-2.546-2.565Z" fill="#333f48"/><path id="Pfad_291" d="M148.7,31.257c.589,0,1.067,.478,1.067,1.067s-.478,1.067-1.067,1.067c-.589,0-1.067-.478-1.067-1.067h0c.006-.587,.48-1.061,1.067-1.067Zm-.787,3.838h1.573v8.649h-1.573v-8.649Z" fill="#333f48"/><path id="Pfad_292" d="M165.043,38.184v5.56h-1.573v-5.317c0-1.4-.73-2.1-1.853-2.1-.828,.079-1.543,.613-1.854,1.385v6.028h-1.572v-5.317c0-1.4-.73-2.1-1.854-2.1-.825,.087-1.536,.618-1.853,1.385v6.028h-1.573v-8.649h1.46v1.273c.442-.922,1.377-1.507,2.4-1.5,1.152-.097,2.237,.551,2.7,1.61,.48-.989,1.484-1.615,2.583-1.61,1.791,.01,2.989,1.189,2.989,3.324Z" fill="#333f48"/><path id="Pfad_293" d="M168.188,40.655v-5.56h1.572v5.3c-.113,1.053,.649,1.999,1.702,2.112,.125,.013,.251,.014,.376,.003,.919-.059,1.738-.6,2.153-1.422v-5.993h1.573v8.649h-1.46v-1.329c-.543,.957-1.558,1.55-2.659,1.553-1.737,.063-3.197-1.295-3.259-3.033-.003-.093-.003-.187,.002-.28Z" fill="#333f48"/><path id="Pfad_294" d="M179.046,29.591h1.573v14.153h-1.573v-14.153Z" fill="#333f48"/><path id="Pfad_295" d="M191.29,38.052v5.691h-1.441v-1.254c-.69,.931-1.78,1.48-2.939,1.479-1.697,.08-3.139-1.231-3.219-2.928v-.03c-.001-1.685,1.478-2.883,3.425-2.883,.917-.014,1.818,.233,2.6,.711v-.468c.046-1.088-.799-2.006-1.887-2.052-.101-.004-.203,0-.303,.011-.905,.045-1.789,.294-2.584,.73l-.655-1.31c.983-.574,2.101-.878,3.239-.88,2.547,0,3.764,1.573,3.764,3.183Zm-1.573,3.221v-1.214c-.68-.42-1.466-.634-2.265-.617-1.348,0-2.191,.673-2.191,1.572,0,1.123,1.011,1.573,1.985,1.573,.979-.051,1.885-.532,2.476-1.314h-.005Z" fill="#333f48"/><path id="Pfad_296" d="M193.687,35.094h1.685v-2.639h1.573v2.639h2.7v1.423h-2.7v4.661c-.097,.632,.336,1.223,.968,1.321,.095,.015,.19,.017,.286,.008,.356-.03,.698-.153,.992-.356l.581,1.292c-.542,.332-1.164,.513-1.8,.524-1.396,.043-2.563-1.054-2.606-2.45-.003-.088,0-.177,.006-.265v-4.736h-1.685v-1.422Z" fill="#333f48"/><path id="Pfad_297" d="M203.291,31.257c.589,0,1.067,.478,1.067,1.067s-.478,1.067-1.067,1.067c-.589,0-1.067-.478-1.067-1.067h0c.007-.587,.48-1.061,1.067-1.067Zm-.786,3.838h1.572v8.649h-1.572v-8.649Z" fill="#333f48"/><path id="Pfad_298" d="M215.814,39.419c-.051,2.461-2.087,4.415-4.548,4.364-2.461-.051-4.415-2.087-4.364-4.548,.05-2.426,2.031-4.366,4.457-4.365,2.446-.015,4.441,1.955,4.457,4.401,0,.049,0,.098-.002,.148Zm-1.572,0c-.11-1.592-1.49-2.794-3.082-2.684-1.592,.11-2.794,1.49-2.684,3.082,.105,1.515,1.364,2.691,2.883,2.691,1.602-.006,2.895-1.309,2.889-2.911,0-.059-.002-.119-.006-.178Z" fill="#333f48"/><path id="Pfad_299" d="M225.737,38.184v5.56h-1.572v-5.3c.114-1.053-.648-1.998-1.7-2.112-.125-.014-.252-.015-.378-.003-.918,.091-1.728,.64-2.152,1.46v5.953h-1.573v-8.649h1.46v1.217c.572-.913,1.581-1.46,2.658-1.442,1.737-.063,3.197,1.295,3.26,3.032,.003,.095,.003,.189-.003,.284Z" fill="#333f48"/><path id="Pfad_300" d="M106.445,49.609h3.389c2.733,0,4.474,1.442,4.474,3.951s-1.741,3.95-4.474,3.95h-1.816v5.2h-1.573v-13.101Zm3.3,6.4c1.779,0,2.995-.786,2.995-2.452s-1.216-2.452-2.995-2.452h-1.727v4.9l1.727,.004Z" fill="#333f48"/><path id="Pfad_301" d="M121.872,54.065l-.58,1.422c-.312-.139-.652-.203-.993-.187-.88,.084-1.642,.645-1.984,1.46v5.953h-1.573v-8.649h1.46v1.329c.473-.909,1.392-1.5,2.415-1.554,.428,0,.853,.077,1.255,.226Z" fill="#333f48"/><path id="Pfad_302" d="M131.869,58.389c-.051,2.46-2.088,4.413-4.548,4.362s-4.413-2.088-4.362-4.548c.051-2.424,2.03-4.363,4.455-4.363,2.446-.015,4.441,1.955,4.457,4.401,0,.049,0,.098-.002,.148Zm-1.573,0c-.11-1.592-1.49-2.794-3.082-2.684-1.592,.11-2.794,1.49-2.684,3.082,.105,1.515,1.364,2.691,2.883,2.691,1.602-.006,2.895-1.309,2.889-2.911,0-.059-.002-.119-.006-.178Z" fill="#333f48"/><path id="Pfad_303" d="M133.667,54.065h1.685v-2.64h1.573v2.64h2.7v1.422h-2.7v4.662c-.097,.632,.336,1.223,.968,1.321,.095,.015,.19,.017,.286,.008,.356-.03,.698-.153,.992-.356l.581,1.292c-.543,.332-1.164,.513-1.8,.524-1.396,.043-2.563-1.054-2.606-2.45-.003-.088,0-.177,.006-.265v-4.736h-1.685v-1.422Z" fill="#333f48"/><path id="Pfad_304" d="M150.516,58.389c-.051,2.461-2.087,4.415-4.548,4.364-2.461-.051-4.415-2.087-4.364-4.548,.05-2.425,2.03-4.365,4.456-4.365,2.446-.016,4.442,1.954,4.458,4.4,0,.05,0,.099-.002,.149Zm-1.573,0c-.11-1.592-1.49-2.794-3.082-2.684-1.592,.11-2.794,1.49-2.684,3.082,.105,1.515,1.364,2.691,2.883,2.691,1.602-.006,2.895-1.309,2.889-2.911,0-.059-.002-.119-.006-.178Z" fill="#333f48"/><path id="Pfad_305" d="M160.458,61.272c-.879,1.047-2.172,1.656-3.539,1.666-2.513,0-4.55-2.037-4.55-4.55s2.037-4.55,4.55-4.55c1.317,.005,2.57,.57,3.445,1.554l-1.067,.954c-.608-.67-1.472-1.051-2.377-1.048-1.706,.144-2.972,1.644-2.828,3.35,.127,1.506,1.322,2.701,2.828,2.828,.989,.004,1.923-.452,2.527-1.235l1.011,1.031Z" fill="#333f48"/><path id="Pfad_306" d="M171.057,58.389c-.051,2.461-2.087,4.415-4.548,4.364-2.461-.051-4.415-2.087-4.364-4.548,.05-2.426,2.031-4.366,4.457-4.365,2.446-.015,4.441,1.955,4.457,4.401,0,.049,0,.098-.002,.148Zm-1.573,0c-.11-1.592-1.49-2.794-3.082-2.684-1.592,.11-2.794,1.49-2.684,3.082,.105,1.515,1.364,2.691,2.883,2.691,1.602-.008,2.894-1.312,2.886-2.914,0-.058-.002-.117-.006-.175h.003Z" fill="#333f48"/><path id="Pfad_307" d="M173.937,48.561h1.572v14.153h-1.572v-14.153Z" fill="#333f48"/></svg>