<?xml version="1.0" encoding="UTF-8"?><svg id="Ebene_1" xmlns="http://www.w3.org/2000/svg" viewBox="0 0 322 77"><path id="Pfad_188" d="M145.669,23.603h5.959v1.639h-5.962v6.535h-1.718v-14.341h8.092v1.639h-6.371v4.528Z" fill="#333f48"/><path id="Pfad_189" d="M154.661,28.396v-6.084h1.721v5.8c-.123,1.153,.712,2.188,1.865,2.311,.136,.015,.273,.016,.409,.004,1.005-.066,1.901-.658,2.356-1.557v-6.556h1.721v9.46h-1.6v-1.455c-.594,1.048-1.704,1.697-2.909,1.7-1.901,.068-3.498-1.419-3.566-3.32-.004-.101-.003-.202,.003-.303Z" fill="#333f48"/><path id="Pfad_190" d="M173.795,25.691v6.085h-1.721v-5.8c.123-1.153-.712-2.188-1.865-2.311-.136-.015-.273-.016-.409-.004-1.006,.099-1.893,.702-2.356,1.6v6.515h-1.721v-9.465h1.6v1.331c.626-.999,1.73-1.598,2.909-1.578,1.901-.068,3.498,1.418,3.566,3.32,.004,.102,.003,.205-.003,.307Z" fill="#333f48"/><path id="Pfad_191" d="M184.876,30.199c-.961,1.146-2.377,1.813-3.873,1.824-2.75-.067-4.924-2.351-4.856-5.101,.065-2.655,2.202-4.791,4.856-4.856,1.441,.005,2.812,.624,3.77,1.7l-1.162,1.045c-.665-.733-1.61-1.15-2.6-1.147-1.867,.132-3.273,1.753-3.141,3.62,.119,1.683,1.458,3.021,3.141,3.141,1.082,.005,2.105-.495,2.766-1.352l1.099,1.126Z" fill="#333f48"/><path id="Pfad_192" d="M186.104,22.316h1.844v-2.889h1.721v2.889h2.95v1.557h-2.95v5.1c-.107,.692,.367,1.339,1.058,1.446,.104,.016,.209,.019,.314,.009,.39-.033,.764-.167,1.086-.389l.636,1.414c-.593,.363-1.272,.561-1.967,.573-1.528,.048-2.806-1.151-2.854-2.679-.003-.097-.001-.194,.006-.291v-5.183h-1.844v-1.557Z" fill="#333f48"/><path id="Pfad_193" d="M196.163,18.112c.645,0,1.168,.523,1.168,1.168s-.523,1.168-1.168,1.168-1.168-.523-1.168-1.168h0c.007-.642,.526-1.161,1.168-1.168Zm-.86,4.2h1.721v9.465h-1.721v-9.465Z" fill="#333f48"/><path id="Pfad_194" d="M209.417,27.044c-.056,2.693-2.284,4.831-4.977,4.775-2.693-.056-4.831-2.284-4.775-4.977,.055-2.654,2.222-4.776,4.876-4.776,2.676-.018,4.86,2.138,4.878,4.814,0,.055,0,.109-.002,.164Zm-1.721,0c-.121-1.742-1.631-3.056-3.373-2.935s-3.056,1.631-2.935,3.373c.115,1.657,1.493,2.943,3.154,2.943,1.753-.007,3.168-1.433,3.162-3.186,0-.065-.003-.13-.007-.195Z" fill="#333f48"/><path id="Pfad_195" d="M219.823,25.691v6.085h-1.72v-5.8c.123-1.153-.712-2.188-1.865-2.311-.136-.015-.274-.016-.41-.004-1.006,.099-1.893,.702-2.356,1.6v6.515h-1.721v-9.465h1.6v1.331c.626-.999,1.73-1.598,2.909-1.578,1.901-.068,3.498,1.418,3.566,3.32,.004,.102,.003,.205-.003,.307Z" fill="#333f48"/><path id="Pfad_196" d="M230.679,25.549v6.228h-1.578v-1.373c-.755,1.019-1.948,1.62-3.216,1.619-1.858,.087-3.435-1.348-3.523-3.206v-.031c-.001-1.844,1.618-3.155,3.748-3.155,1.004-.016,1.992,.254,2.848,.778v-.512c.05-1.19-.875-2.195-2.065-2.245-.112-.005-.224,0-.335,.012-.991,.049-1.957,.323-2.827,.8l-.717-1.435c1.076-.628,2.298-.961,3.544-.963,2.79,0,4.121,1.725,4.121,3.483Zm-1.721,3.524v-1.332c-.744-.46-1.605-.694-2.479-.676-1.475,0-2.4,.737-2.4,1.721,0,1.229,1.106,1.721,2.172,1.721,1.07-.056,2.06-.58,2.707-1.434Z" fill="#333f48"/><path id="Pfad_197" d="M234.038,16.289h1.718v15.485h-1.721l.003-15.485Z" fill="#333f48"/><path id="Pfad_198" d="M247.312,17.436l4.937,8.011,4.917-8.011h1.659v14.341h-1.72v-11.226l-4.9,7.969-4.9-7.949v11.206h-1.714v-14.341h1.721Z" fill="#333f48"/><path id="Pfad_199" d="M271.28,27.044c-.056,2.693-2.284,4.831-4.977,4.775-2.693-.056-4.831-2.284-4.775-4.977,.055-2.654,2.222-4.776,4.876-4.776,2.676-.018,4.86,2.138,4.878,4.814,0,.055,0,.109-.002,.164Zm-1.721,0c-.121-1.742-1.631-3.056-3.373-2.935s-3.056,1.631-2.935,3.373c.115,1.657,1.493,2.943,3.154,2.943,1.753-.007,3.169-1.433,3.162-3.186,0-.065-.003-.13-.007-.195Z" fill="#333f48"/><path id="Pfad_200" d="M281.71,30.199c-.961,1.146-2.376,1.813-3.872,1.824-2.75-.067-4.924-2.351-4.856-5.101,.065-2.655,2.202-4.791,4.856-4.856,1.441,.006,2.811,.624,3.769,1.7l-1.168,1.045c-.665-.733-1.61-1.15-2.6-1.147-1.867,.132-3.273,1.753-3.141,3.62,.119,1.683,1.458,3.021,3.141,3.141,1.082,.005,2.105-.495,2.766-1.352l1.105,1.126Z" fill="#333f48"/><path id="Pfad_201" d="M285.844,27.188v4.586h-1.721v-15.485h1.721v10.223l4.056-4.2h2.253l-4.425,4.466,4.794,5h-2.4l-4.278-4.59Z" fill="#333f48"/><path id="Pfad_202" d="M293.607,25.959h5.47v1.639h-5.47v-1.639Z" fill="#333f48"/><path id="Pfad_203" d="M301.432,28.396v-6.084h1.725v5.8c-.123,1.153,.712,2.188,1.865,2.311,.136,.015,.273,.016,.409,.004,1.005-.066,1.901-.658,2.356-1.557v-6.556h1.721v9.46h-1.6v-1.455c-.594,1.048-1.704,1.697-2.909,1.7-1.901,.07-3.499-1.415-3.569-3.316-.004-.102-.003-.205,.002-.307Z" fill="#333f48"/><path id="Pfad_204" d="M314.072,22.312v1.372c.719-1.052,1.927-1.662,3.2-1.619,2.75,.224,4.797,2.635,4.573,5.384-.199,2.438-2.134,4.374-4.573,4.573-1.182,.028-2.309-.494-3.052-1.414v5.88h-1.726v-14.176h1.578Zm.143,6.494c.593,.979,1.642,1.589,2.786,1.619,1.867-.14,3.267-1.767,3.127-3.634-.125-1.672-1.455-3.001-3.127-3.127-1.144,.03-2.193,.64-2.786,1.619v3.523Z" fill="#333f48"/><path id="Pfad_205" d="M144.234,37.561h1.721v14.341h-1.721v-14.341Z" fill="#333f48"/><path id="Pfad_206" d="M157.673,45.813v6.084h-1.72v-5.8c.123-1.153-.712-2.188-1.865-2.311-.136-.015-.274-.016-.41-.004-1.006,.099-1.893,.702-2.356,1.6v6.515h-1.721v-9.464h1.6v1.331c.627-.999,1.73-1.597,2.909-1.577,1.901-.068,3.497,1.417,3.566,3.318,.004,.103,.003,.206-.003,.308Z" fill="#333f48"/><path id="Pfad_207" d="M159.841,42.433h1.844v-2.889h1.721v2.889h2.95v1.556h-2.95v5.1c-.107,.692,.367,1.339,1.058,1.446,.104,.016,.209,.019,.314,.009,.39-.033,.764-.167,1.086-.389l.636,1.413c-.593,.363-1.272,.561-1.967,.573-1.527,.048-2.805-1.151-2.853-2.678-.003-.097-.001-.195,.006-.292v-5.183h-1.845v-1.555Z" fill="#333f48"/><path id="Pfad_208" d="M177.419,47.226c.003,.185-.004,.369-.02,.553h-7.641c.217,1.62,1.623,2.814,3.257,2.766,1.112-.007,2.16-.52,2.848-1.394l1.086,1.127c-.982,1.158-2.415,1.838-3.933,1.864-2.67,.057-4.882-2.061-4.939-4.731-.002-.082-.001-.165,.001-.247-.15-2.595,1.831-4.82,4.426-4.97,.102-.006,.205-.009,.307-.008,2.641,0,4.608,1.988,4.608,5.04Zm-1.679-.881c-.151-1.491-1.432-2.611-2.93-2.561-1.514-.052-2.819,1.058-3.011,2.561h5.941Z" fill="#333f48"/><path id="Pfad_209" d="M185.367,42.433l-.635,1.556c-.342-.15-.713-.219-1.086-.2-.963,.094-1.796,.708-2.171,1.6v6.515h-1.721v-9.464h1.6v1.446c.518-.995,1.523-1.641,2.643-1.7,.468,0,.932,.084,1.37,.247Z" fill="#333f48"/><path id="Pfad_210" d="M186.186,42.432h1.967v-3.258c-.062-1.6,1.185-2.948,2.786-3.01,.041-.002,.082-.002,.123-.002,.7,.003,1.386,.194,1.987,.553l-.635,1.414c-.334-.211-.714-.337-1.107-.369-.749-.047-1.394,.521-1.441,1.27-.005,.082-.003,.165,.007,.246v3.155h2.459v1.555h-2.459v7.908h-1.72v-7.908h-1.967v-1.554Z" fill="#333f48"/><path id="Pfad_211" d="M202.186,45.669v6.228h-1.578v-1.372c-.755,1.019-1.948,1.619-3.216,1.618-1.858,.087-3.435-1.348-3.523-3.206v-.031c-.001-1.843,1.618-3.154,3.748-3.154,1.004-.015,1.991,.254,2.847,.778v-.512c.05-1.19-.875-2.195-2.065-2.245-.112-.005-.224,0-.335,.012-.991,.049-1.957,.323-2.827,.8l-.718-1.434c1.076-.628,2.298-.96,3.544-.962,2.792-.003,4.123,1.718,4.123,3.48Zm-1.721,3.524v-1.331c-.744-.46-1.605-.695-2.479-.677-1.474,0-2.4,.738-2.4,1.721,0,1.229,1.106,1.721,2.171,1.721,1.07-.055,2.061-.58,2.708-1.434Z" fill="#333f48"/><path id="Pfad_212" d="M213.268,50.32c-.961,1.145-2.377,1.812-3.872,1.823-2.749-.055-4.933-2.329-4.878-5.078,.054-2.672,2.207-4.824,4.878-4.878,1.441,.006,2.812,.624,3.77,1.7l-1.168,1.045c-.665-.733-1.61-1.15-2.6-1.147-1.867,.132-3.273,1.753-3.141,3.62,.119,1.683,1.458,3.021,3.141,3.141,1.082,.005,2.105-.495,2.766-1.352l1.104,1.126Z" fill="#333f48"/><path id="Pfad_213" d="M224.002,47.226c.003,.185-.004,.369-.021,.553h-7.641c.217,1.62,1.623,2.814,3.257,2.766,1.112-.007,2.16-.52,2.848-1.394l1.086,1.127c-.982,1.158-2.416,1.838-3.934,1.864-2.67,.058-4.881-2.06-4.938-4.73-.002-.083-.001-.166,.001-.248-.15-2.595,1.831-4.82,4.426-4.97,.102-.006,.204-.008,.306-.008,2.643,0,4.61,1.988,4.61,5.04Zm-1.68-.881c-.151-1.491-1.432-2.611-2.93-2.561-1.514-.051-2.819,1.058-3.011,2.561h5.941Z" fill="#333f48"/><path id="Pfad_214" d="M231.539,42.432h1.967v-3.258c-.062-1.6,1.185-2.948,2.786-3.01,.041-.002,.082-.002,.123-.002,.7,.003,1.386,.194,1.987,.553l-.635,1.414c-.333-.21-.713-.337-1.106-.369-.749-.047-1.394,.521-1.441,1.27-.005,.082-.003,.165,.007,.246v3.155h2.458v1.555h-2.458v7.908h-1.721v-7.908h-1.967v-1.554Z" fill="#333f48"/><path id="Pfad_215" d="M248.686,47.165c-.056,2.693-2.284,4.831-4.977,4.775-2.693-.056-4.831-2.284-4.775-4.977,.055-2.654,2.222-4.776,4.876-4.776,2.676-.018,4.86,2.138,4.878,4.814,0,.055,0,.109-.002,.164Zm-1.721,0c-.121-1.742-1.631-3.056-3.373-2.935-1.742,.121-3.056,1.631-2.935,3.373,.115,1.657,1.493,2.943,3.154,2.943,1.753-.007,3.168-1.433,3.162-3.186,0-.065-.003-.13-.007-.195Z" fill="#333f48"/><path id="Pfad_216" d="M256.634,42.433l-.635,1.556c-.342-.15-.713-.219-1.086-.2-.963,.093-1.797,.708-2.172,1.6v6.515h-1.721v-9.464h1.6v1.446c.518-.995,1.523-1.641,2.643-1.7,.468,0,.932,.084,1.371,.247Z" fill="#333f48"/><path id="Pfad_217" d="M152.266,67.346c.003,.185-.004,.37-.021,.554h-7.641c.217,1.62,1.623,2.814,3.257,2.766,1.111-.007,2.159-.52,2.847-1.393l1.086,1.127c-.982,1.159-2.415,1.838-3.933,1.864-2.67,.057-4.882-2.061-4.939-4.731-.002-.082-.001-.165,.001-.247-.15-2.595,1.831-4.82,4.426-4.97,.102-.006,.205-.009,.307-.008,2.643-.001,4.61,1.986,4.61,5.038Zm-1.68-.881c-.152-1.491-1.432-2.61-2.93-2.56-1.514-.052-2.819,1.057-3.011,2.56h5.941Z" fill="#333f48"/><path id="Pfad_218" d="M167.875,65.933v6.085h-1.72v-5.818c0-1.537-.8-2.294-2.028-2.294-.906,.087-1.688,.672-2.028,1.516v6.6h-1.721v-5.818c0-1.537-.8-2.294-2.028-2.294-.903,.095-1.682,.677-2.028,1.516v6.6h-1.721v-9.465h1.6v1.393c.483-1.007,1.505-1.646,2.622-1.639,1.259-.106,2.445,.603,2.95,1.761,.525-1.082,1.624-1.766,2.827-1.761,1.964-.008,3.275,1.283,3.275,3.618Z" fill="#333f48"/><path id="Pfad_219" d="M180.596,67.285c.124,2.624-1.902,4.851-4.526,4.975l-.063,.003c-1.275,.051-2.486-.561-3.2-1.618v1.372h-1.578v-15.487h1.721v7.191c.739-.925,1.87-1.449,3.053-1.413,2.625,.087,4.682,2.284,4.596,4.909l-.003,.068Zm-7.642,1.742c.588,.986,1.638,1.604,2.786,1.639,1.867-.144,3.263-1.773,3.12-3.64-.128-1.667-1.453-2.991-3.12-3.12-1.148,.035-2.198,.653-2.786,1.639v3.482Z" fill="#333f48"/><path id="Pfad_220" d="M191.616,67.346c.003,.185-.004,.37-.021,.554h-7.641c.217,1.62,1.623,2.814,3.257,2.766,1.112-.007,2.16-.52,2.848-1.393l1.086,1.127c-.982,1.159-2.415,1.838-3.934,1.864-2.67,.057-4.881-2.062-4.938-4.732-.002-.082-.001-.164,.001-.246-.15-2.595,1.831-4.82,4.426-4.97,.102-.006,.204-.008,.306-.008,2.643-.001,4.61,1.986,4.61,5.038Zm-1.68-.881c-.151-1.491-1.432-2.61-2.93-2.56-1.514-.052-2.818,1.058-3.011,2.56h5.941Z" fill="#333f48"/><path id="Pfad_221" d="M200.936,63.721v-7.191h1.721v15.488h-1.577v-1.372c-.715,1.057-1.925,1.669-3.2,1.618-2.749-.227-4.794-2.641-4.566-5.39,.201-2.434,2.133-4.365,4.566-4.566,1.184-.037,2.317,.487,3.056,1.413Zm0,1.824c-.588-.986-1.638-1.604-2.786-1.639-1.867,.144-3.263,1.773-3.12,3.64,.128,1.667,1.453,2.991,3.12,3.12,1.148-.035,2.198-.653,2.786-1.639v-3.482Z" fill="#333f48"/><path id="Pfad_222" d="M213.002,63.721v-7.191h1.721v15.488h-1.578v-1.372c-.715,1.057-1.925,1.669-3.2,1.618-2.749-.227-4.794-2.641-4.566-5.39,.201-2.434,2.133-4.365,4.566-4.566,1.185-.037,2.318,.487,3.057,1.413Zm0,1.824c-.588-.986-1.638-1.604-2.786-1.639-1.867,.144-3.263,1.773-3.12,3.64,.128,1.667,1.453,2.991,3.12,3.12,1.148-.035,2.198-.653,2.786-1.639v-3.482Z" fill="#333f48"/><path id="Pfad_223" d="M226.768,67.346c.003,.185-.004,.37-.021,.554h-7.641c.217,1.62,1.623,2.814,3.257,2.766,1.112-.007,2.16-.52,2.848-1.393l1.086,1.127c-.982,1.159-2.415,1.838-3.934,1.864-2.67,.057-4.881-2.062-4.938-4.732-.002-.082-.001-.164,.001-.246-.15-2.595,1.831-4.82,4.426-4.97,.102-.006,.205-.009,.307-.008,2.642-.001,4.609,1.986,4.609,5.038Zm-1.68-.881c-.151-1.491-1.431-2.61-2.929-2.56-1.514-.052-2.819,1.057-3.012,2.56h5.941Z" fill="#333f48"/><path id="Pfad_224" d="M236.088,63.721v-7.191h1.721v15.488h-1.577v-1.372c-.715,1.057-1.925,1.669-3.2,1.618-2.749-.227-4.794-2.641-4.566-5.39,.201-2.434,2.133-4.365,4.566-4.566,1.184-.037,2.317,.487,3.056,1.413Zm0,1.824c-.588-.986-1.638-1.604-2.786-1.639-1.867,.144-3.263,1.773-3.12,3.64,.128,1.667,1.453,2.991,3.12,3.12,1.148-.035,2.198-.653,2.786-1.639v-3.482Z" fill="#333f48"/><path id="Pfad_225" d="M247.845,69.17c.662,.934,1.724,1.503,2.868,1.537,.963,0,2.049-.41,2.049-1.168,0-.82-.7-1.229-2.151-1.516-2.028-.41-3.462-1.209-3.462-2.991,0-1.372,1.373-2.725,3.483-2.725,1.311-.007,2.571,.509,3.5,1.434l-1.127,1.168c-.628-.642-1.48-1.016-2.377-1.044-1.209,0-1.8,.594-1.8,1.209,0,.717,.738,1.106,2.295,1.434,1.8,.39,3.34,1.065,3.34,2.991,0,1.823-1.926,2.766-3.75,2.766-1.585-.008-3.078-.74-4.056-1.987l1.188-1.108Z" fill="#333f48"/><path id="Pfad_226" d="M256.94,74.886c.321,.268,.712,.438,1.127,.492,.758,0,1.106-.533,1.475-1.454l.738-1.864-4.426-9.506h1.946l3.319,7.478,2.827-7.478h1.864s-4.753,11.964-4.978,12.517c-.376,1.131-1.43,1.897-2.622,1.905-.723-.012-1.425-.249-2.008-.677l.738-1.413Z" fill="#333f48"/><path id="Pfad_227" d="M268.145,69.17c.662,.934,1.724,1.503,2.868,1.537,.963,0,2.049-.41,2.049-1.168,0-.82-.7-1.229-2.151-1.516-2.028-.41-3.462-1.209-3.462-2.991,0-1.372,1.373-2.725,3.483-2.725,1.311-.007,2.571,.509,3.5,1.434l-1.127,1.168c-.628-.642-1.48-1.016-2.377-1.044-1.209,0-1.8,.594-1.8,1.209,0,.717,.738,1.106,2.295,1.434,1.8,.39,3.339,1.065,3.339,2.991,0,1.823-1.926,2.766-3.75,2.766-1.585-.008-3.079-.74-4.056-1.987l1.189-1.108Z" fill="#333f48"/><path id="Pfad_228" d="M276.446,62.553h1.844v-2.889h1.721v2.889h2.95v1.555h-2.95v5.1c0,.922,.45,1.455,1.372,1.455,.39-.033,.764-.167,1.086-.389l.635,1.414c-.593,.363-1.272,.561-1.967,.573-1.528,.048-2.806-1.151-2.854-2.679-.003-.097-.001-.194,.006-.291v-5.183h-1.843v-1.555Z" fill="#333f48"/><path id="Pfad_229" d="M294.019,67.346c.003,.185-.004,.37-.021,.554h-7.641c.217,1.62,1.623,2.814,3.257,2.766,1.112-.007,2.16-.52,2.848-1.393l1.086,1.127c-.982,1.159-2.416,1.838-3.934,1.864-2.67,.057-4.881-2.062-4.938-4.732-.002-.082-.001-.164,.001-.246-.15-2.595,1.831-4.82,4.426-4.97,.102-.006,.204-.008,.306-.008,2.643-.001,4.61,1.986,4.61,5.038Zm-1.68-.881c-.152-1.491-1.432-2.61-2.93-2.56-1.514-.052-2.818,1.058-3.011,2.56h5.941Z" fill="#333f48"/><path id="Pfad_230" d="M309.626,65.933v6.085h-1.721v-5.818c0-1.537-.8-2.294-2.029-2.294-.906,.087-1.688,.672-2.028,1.516v6.6h-1.722v-5.818c0-1.537-.8-2.294-2.028-2.294-.903,.095-1.681,.677-2.028,1.516v6.6h-1.721v-9.465h1.6v1.393c.484-1.007,1.505-1.646,2.623-1.639,1.259-.106,2.445,.603,2.95,1.761,.525-1.082,1.624-1.767,2.827-1.761,1.967-.008,3.277,1.283,3.277,3.618Z" fill="#333f48"/><path id="Pfad_231" d="M313.191,69.17c.663,.934,1.725,1.503,2.869,1.537,.962,0,2.049-.41,2.049-1.168,0-.82-.7-1.229-2.151-1.516-2.028-.41-3.462-1.209-3.462-2.991,0-1.372,1.373-2.725,3.483-2.725,1.311-.007,2.571,.509,3.5,1.434l-1.128,1.168c-.627-.642-1.479-1.016-2.376-1.044-1.209,0-1.8,.594-1.8,1.209,0,.717,.738,1.106,2.294,1.434,1.8,.39,3.34,1.065,3.34,2.991,0,1.823-1.926,2.766-3.749,2.766-1.585-.008-3.079-.74-4.057-1.987l1.188-1.108Z" fill="#333f48"/><path id="Pfad_232" d="M.974,70.825v-4.647H41.132l3.664,3.173,3.834-3.173H120.73v4.646H.974Z" fill="#c8102e"/><path id="Pfad_233" d="M100.561,50.328V30.876c0-3.443-1.746-5.929-5.191-7.389-.773-.204-1.566-.32-2.364-.347-3.052,0-5.4,1.563-6.988,4.65-.432,1.208-.635,2.486-.6,3.768l.043,18.77h-5.731l-.045-19.84c0-3.553-1.9-7.349-7.245-7.349-4.147-.162-7.64,3.068-7.802,7.215-.003,.066-.004,.132-.005,.197v19.777h-5.731l.03-19.308c0-8.649,4.832-13.609,13.258-13.609,3.822-.001,7.459,1.648,9.977,4.524l.436,.468,.43-.475c2.559-2.957,6.289-4.64,10.2-4.6,12.907,0,13.055,12.4,13.055,12.927v20.073h-5.727Z" fill="#333f48"/><rect id="Rechteck_604" x="114.913" y="30.989" width="5.806" height="19.339" fill="#333f48"/><rect id="Rechteck_605" x="114.923" y="18.425" width="5.806" height="7.405" fill="#333f48"/><path id="Pfad_234" d="M47.822,17.423v-3.766c.03-1.303,.295-2.591,.782-3.8,1.029-2.678,3.441-4.053,7.173-4.087V.025c-1.78-.012-3.552,.235-5.261,.733-1.343,.507-2.605,1.205-3.748,2.073-3.037,2.773-4.743,6.713-4.686,10.826v3.767h-12.24c1.647,1.623,2.929,3.578,3.76,5.736h8.48V63.995l2.757,2.384,2.983-2.4V23.159h7.392c.831-2.157,2.113-4.113,3.76-5.735h-11.152Z" fill="#333f48"/><path id="Pfad_235" d="M16.233,17.208h-1.341c-8.146,.009-14.746,6.611-14.753,14.757v3.444c.009,8.144,6.609,14.744,14.753,14.753h1.341c5.568-.006,10.66-3.143,13.168-8.114h-7.22c-1.631,1.473-3.75,2.288-5.948,2.289h-1.341c-4.59-.006-8.43-3.488-8.884-8.056l24.952-.019c.016-.282,.027-.567,.027-.853v-3.444c-.007-8.146-6.608-14.748-14.754-14.757Zm-1.341,5.825h1.341c4.344,.008,8.053,3.139,8.79,7.42H6.102c.737-4.281,4.446-7.412,8.79-7.42Z" fill="#c8102e"/></svg>