<?xml version="1.0" encoding="UTF-8"?><svg id="Ebene_1" xmlns="http://www.w3.org/2000/svg" viewBox="0 0 215 107"><path id="Pfad_141" d="M115.559,84.283h2.004v14.788h7.489v1.907h-9.492v-16.695Z" fill="#1a242d"/><path id="Pfad_142" d="M129.798,85.07c.751,0,1.359,.608,1.359,1.359s-.608,1.359-1.359,1.359-1.359-.608-1.359-1.358c.008-.747,.612-1.352,1.359-1.36Zm-1.001,4.889h2.003v11.018h-2.003v-11.018Z" fill="#1a242d"/><path id="Pfad_143" d="M147.209,95.469c0,3.243-2.361,5.796-5.342,5.796-1.482,.058-2.889-.653-3.721-1.881v1.598h-1.837v-18.035h2.004v8.371c.859-1.078,2.176-1.687,3.554-1.646,2.982,0,5.342,2.552,5.342,5.796Zm-8.897,2.025c.684,1.148,1.907,1.868,3.243,1.908,2.242,0,3.649-1.766,3.649-3.936s-1.455-3.936-3.649-3.936c-1.336,.041-2.559,.76-3.243,1.909v4.054Z" fill="#1a242d"/><path id="Pfad_144" d="M157.703,89.959l-.739,1.813c-.397-.177-.83-.259-1.264-.239-1.742,0-2.532,1.861-2.532,1.861v7.583h-2.003v-11.018h1.86v1.693c.603-1.157,1.773-1.91,3.076-1.979,.546,0,1.088,.096,1.601,.286Z" fill="#1a242d"/><path id="Pfad_145" d="M169.821,93.727v7.25h-1.837v-1.598c-.88,1.185-2.269,1.882-3.745,1.881-1.979,0-4.102-1.384-4.102-3.769,0-2.147,1.881-3.673,4.365-3.673,1.169-.018,2.318,.296,3.315,.906v-.596c0-2.29-1.908-2.6-2.791-2.6-1.153,.057-2.279,.375-3.291,.93l-.835-1.669c1.251-.731,2.674-1.118,4.123-1.121,3.247,.005,4.797,2.008,4.797,4.059Zm-2.003,4.102v-1.55c-.866-.535-1.868-.808-2.886-.787-1.717,0-2.79,.859-2.79,2.004,0,1.431,1.288,2.004,2.532,2.004,1.242-.067,2.392-.677,3.144-1.669h0Z" fill="#1a242d"/><path id="Pfad_146" d="M181.078,89.959l-.739,1.813c-.397-.177-.83-.259-1.264-.239-1.742,0-2.532,1.861-2.532,1.861v7.583h-2.003v-11.018h1.86v1.693c.603-1.157,1.773-1.91,3.076-1.979,.546,0,1.088,.096,1.601,.286Z" fill="#1a242d"/><path id="Pfad_147" d="M185.682,85.07c.751,0,1.359,.609,1.358,1.36s-.609,1.359-1.36,1.358c-.75,0-1.358-.608-1.358-1.358,.008-.748,.612-1.352,1.36-1.36Zm-1.002,4.889h2.003v11.018h-2.003v-11.018Z" fill="#1a242d"/><path id="Pfad_148" d="M201.877,95.54c.003,.215-.005,.43-.024,.644h-8.897c.254,1.886,1.891,3.275,3.792,3.219,1.294-.008,2.514-.605,3.315-1.622l1.264,1.312c-1.143,1.349-2.812,2.139-4.579,2.17-3.108,.066-5.682-2.399-5.749-5.508-.002-.096-.002-.192,.001-.288,0-3.219,2.194-5.795,5.51-5.795,3.076,.001,5.366,2.315,5.366,5.868Zm-1.953-1.026c-.176-1.736-1.667-3.039-3.41-2.981-1.763-.06-3.282,1.231-3.507,2.981h6.917Z" fill="#1a242d"/><path id="Pfad_149" d="M206.503,97.662c.771,1.087,2.007,1.749,3.339,1.789,1.121,0,2.387-.477,2.387-1.36,0-.954-.811-1.431-2.505-1.765-2.361-.477-4.03-1.408-4.03-3.482,0-1.599,1.598-3.172,4.051-3.172,1.528-.01,2.996,.591,4.079,1.669l-1.312,1.36c-.73-.748-1.722-1.184-2.767-1.217-1.407,0-2.098,.692-2.098,1.408,0,.835,.859,1.288,2.67,1.669,2.098,.454,3.888,1.24,3.888,3.483,0,2.123-2.242,3.219-4.365,3.219-1.845-.01-3.584-.862-4.722-2.315l1.384-1.288Z" fill="#1a242d"/><circle id="Ellipse_19" cx="154.409" cy="38.869" r="5.81" fill="#cb001b"/><path id="Pfad_150" d="M164.961,.157c-7.253,.265-15.39,8.137-15.39,8.048,.089-4.511-3.272-8.845-9.463-7.872-6.191,.973-13.974,8.757-14.063,8.757,.167-3.636-1.952-6.99-5.306-8.402-4.855-1.832-12.058-.469-21.374,9.847-7.329,8.113-25.943,29.337-32.954,37.291,2.478,1.468,4.651,3.398,6.403,5.685l22.278-27.527s12.908-16.926,19.988-18.573c5.859-1.365,6.775,4.239,4.6,9.463-4.43,10.624-15.3,28.298-15.3,28.298,0,0,15.213-19.723,17.778-22.996,2.565-3.273,15.39-19.37,21.049-13.709,5.516,5.517-11.056,29.367-11.056,29.367l8.491-10.967s17.248-22.64,24.764-19.812c7.517,2.828-4.864,23.527-4.864,23.436,0,0,7.416-5.653,11.41-17.778,1.824-5.541,.264-12.821-6.989-12.556ZM37.062,80.95l-17.749,20.028h15.533l10.741-13.138c-3.367-1.558-6.296-3.925-8.525-6.89Z" fill="#6c7883"/><path id="Pfad_151" d="M.798,56.406c0-4.874,3.928-8.991,9.796-8.991,2.749-.073,5.411,.968,7.382,2.885,1.976-1.91,4.635-2.949,7.383-2.885,5.915,0,9.654,4.116,9.654,8.991v21.415h-5.399v-20.61c0-3.36-1.702-5.208-4.352-5.208-2.604,0-4.639,1.845-4.639,5.208v20.61h-5.445v-20.61c0-3.36-2.034-5.208-4.684-5.208-2.604,0-4.307,1.845-4.307,5.208v20.61H.795l.003-21.415Z" fill="#1a242d"/><path id="Pfad_152" d="M90.712,47.933h5.442v19.355c0,6.024-4.884,10.908-10.908,10.908s-10.908-4.884-10.908-10.908c0-6.057,4.591-10.932,10.505-10.932,2.155,.037,4.231,.824,5.869,2.225v-10.648Zm-5.491,25.08c3.058,0,5.537-2.478,5.537-5.536s-2.478-5.537-5.536-5.537c-3.057,0-5.536,2.478-5.537,5.535-.014,3.045,2.444,5.524,5.488,5.538,.016,0,.031,0,.047,0h0Z" fill="#1a242d"/><path id="Pfad_153" d="M65.763,67.358c.095,5.944-4.646,10.84-10.589,10.935-5.944,.095-10.84-4.646-10.935-10.589-.095-5.944,4.646-10.84,10.589-10.935,.057,0,.115-.001,.172-.001,5.856-.088,10.674,4.588,10.762,10.444,0,.049,.001,.098,.001,.147Zm-5.19,0c0-3.147-2.128-5.828-5.57-5.828s-5.57,2.681-5.57,5.828,2.126,5.828,5.57,5.828,5.57-2.68,5.57-5.828Z" fill="#1a242d"/><path id="Pfad_154" d="M124.965,67.273c0,.383,0,1.148-.041,1.915h-15.058c.75,2.48,3.066,4.152,5.656,4.084,2.034,.037,4.008-.693,5.53-2.043l2.553,3.829c-2.285,1.858-5.137,2.879-8.082,2.893-5.851,.139-10.707-4.491-10.847-10.342-.002-.083-.003-.166-.003-.25,0-5.913,4.297-10.591,10.126-10.591,5.53-.001,10.167,4.294,10.167,10.505Zm-5.104-1.786c-.086-1.745-1.703-4.084-5.063-4.084-3.276,0-4.764,2.296-4.933,4.084h9.996Z" fill="#1a242d"/><path id="Pfad_155" d="M134.976,47.932h5.308v29.886h-5.308v-29.886Z" fill="#1a242d"/><path id="Pfad_156" d="M181.613,70.719l3.361,3.404c-2.082,2.438-5.131,3.838-8.337,3.827-5.849,.145-10.709-4.479-10.854-10.329-.145-5.849,4.479-10.709,10.329-10.854,.175-.004,.35-.004,.525,0,3.166-.021,6.183,1.347,8.252,3.744l-3.531,3.147c-1.193-1.357-2.915-2.133-4.722-2.127-3.219,.101-5.746,2.793-5.644,6.011,.097,3.076,2.568,5.547,5.644,5.644,1.965,.049,3.827-.874,4.977-2.468Z" fill="#1a242d"/><path id="Pfad_157" d="M151.628,56.784h5.353v21.034h-5.353v-21.034Z" fill="#1a242d"/><path id="Pfad_158" d="M208.852,56.785v1.488c-1.689-.99-3.612-1.51-5.57-1.505-5.849-.108-10.679,4.546-10.787,10.396-.108,5.849,4.546,10.679,10.396,10.787,.13,.002,.261,.002,.391,0,1.959,.004,3.883-.519,5.57-1.515v1.397h5.353v-21.049h-5.353Zm-5.57,16.403c-3.445,0-5.57-2.681-5.57-5.828s2.126-5.828,5.57-5.828,5.57,2.681,5.57,5.828-2.128,5.828-5.573,5.828h.004Z" fill="#1a242d"/></svg>