<?xml version="1.0" encoding="UTF-8"?><svg id="Ebene_1" xmlns="http://www.w3.org/2000/svg" xmlns:xlink="http://www.w3.org/1999/xlink" viewBox="0 0 80 40"><defs><clipPath id="clippath"><rect x=".376" y=".042" width="79.248" height="39.916" fill="none"/></clipPath></defs><g id="Gruppe_876" transform="translate(0 0)"><g clip-path="url(#clippath)"><g id="Gruppe_789" transform="translate(0 0)"><path id="Pfad_310" d="M61.681,29.039c0-2.395,1.941-4.336,4.336-4.336s4.336,1.941,4.336,4.336-1.941,4.336-4.336,4.336-4.336-1.941-4.336-4.336h0" fill="#cb001b"/><path id="Pfad_311" d="M73.893,.16c-5.411,.198-11.481,6.07-11.481,6.003,.176-3.149-2.235-5.844-5.384-6.02-.563-.031-1.128,.021-1.676,.155-4.618,.726-10.424,6.532-10.49,6.532,.129-2.713-1.449-5.219-3.951-6.275-3.63-1.365-9.002-.349-15.952,7.348C19.492,13.954,5.607,29.786,.376,35.72c1.849,1.096,3.47,2.535,4.777,4.241L21.77,19.437s9.628-12.625,14.911-13.854c4.361-1.026,5.054,3.163,3.43,7.06-3.392,7.252-7.203,14.301-11.414,21.111,0,0,11.35-14.728,13.261-17.166,1.911-2.437,11.481-14.449,15.703-10.226,4.105,4.105-8.248,21.904-8.248,21.904l6.334-8.181s12.866-16.891,18.471-14.78c5.606,2.111-3.625,17.55-3.625,17.484,4.015-3.54,6.962-8.131,8.51-13.256,1.362-4.136,.198-9.567-5.213-9.369" fill="#808a94"/></g></g></g></svg>