<?xml version="1.0" encoding="UTF-8"?><svg id="Ebene_1" xmlns="http://www.w3.org/2000/svg" viewBox="0 0 270 51"><path id="Pfad_236" d="M0,50.415v-4.393l56.582-.027,3.494,3.134,3.5-3.134,22.144,.027v4.393H0Z" fill="#ba0023"/><path id="Pfad_237" d="M.89,31.09v-5.466h15.356c1.98,.033,3.611-1.545,3.644-3.525,.033-1.98-1.545-3.611-3.525-3.644-.04,0-.08,0-.12,0h-7.131C4.117,18.453,.067,14.399,.069,9.401,.072,4.406,4.12,.358,9.115,.355l17.9-.037c-1.576,1.557-2.803,3.432-3.6,5.5H9.115c-1.98,.033-3.559,1.665-3.525,3.645,.032,1.934,1.592,3.493,3.525,3.525h7.13c4.998-.002,9.052,4.048,9.054,9.046,.002,4.998-4.048,9.052-9.046,9.054H.89Z" fill="#fff"/><path id="Pfad_238" d="M26.66,31.09c1.373-1.601,2.413-3.459,3.06-5.466h15.45c1.98-.033,3.558-1.665,3.525-3.644-.032-1.933-1.592-3.492-3.525-3.525h-7.13c-4.998,.002-9.052-4.048-9.054-9.046S33.033,.358,38.031,.355h.008l20.218-.037c-1.57,1.569-2.805,3.44-3.63,5.5h-16.588c-1.98-.033-3.612,1.545-3.645,3.525-.033,1.98,1.545,3.612,3.525,3.645,.04,0,.08,0,.12,0h7.131c4.998,.002,9.048,4.056,9.046,9.054-.002,4.995-4.051,9.043-9.046,9.046H26.66Z" fill="#fff"/><path id="Pfad_239" d="M57.47,43.655V13.721c.008-7.402,6.006-13.4,13.408-13.409h1.365c7.402,.009,13.399,6.007,13.408,13.409v4c-.008,7.402-6.006,13.4-13.408,13.409h-1.366c-2.553-.001-5.052-.735-7.2-2.115l-.865-.553v15.193l-2.674,2.514-2.668-2.514ZM70.878,5.655c-4.451,.005-8.058,3.613-8.062,8.064v4c.004,4.451,3.611,8.059,8.062,8.064h1.365c4.451-.006,8.057-3.613,8.062-8.064v-4c-.004-4.451-3.611-8.058-8.062-8.064h-1.365Z" fill="#fff"/><path id="Pfad_240" d="M108.962,25.719c-1.9-.875-3.576-1.751-3.576-3.968,.075-1.969,1.732-3.505,3.701-3.43l.061,.003c1.466,.012,2.84,.716,3.706,1.9l-1.173,.95c-.59-.818-1.525-1.32-2.533-1.36-1.116-.095-2.099,.732-2.194,1.849-.003,.029-.004,.059-.006,.088,0,1.322,1.117,1.844,2.9,2.663,1.993,.913,3.241,1.751,3.241,3.855,0,2.124-1.751,3.539-4.042,3.539-1.802,0-3.432-1.068-4.153-2.719l1.3-.782c.477,1.168,1.589,1.953,2.85,2.011,1.202,.14,2.289-.722,2.429-1.924,.005-.042,.008-.083,.011-.125,.011-1.359-1.069-1.88-2.522-2.55Z" fill="#fff"/><path id="Pfad_241" d="M115.985,34.194c.292,.243,.647,.398,1.024,.447,.689,0,1.006-.484,1.341-1.323l.671-1.695-4.023-8.642h1.769l3.018,6.8,2.57-6.8h1.7s-4.322,10.877-4.526,11.38c-.342,1.028-1.3,1.725-2.384,1.732-.657-.011-1.295-.226-1.825-.615l.665-1.284Z" fill="#fff"/><path id="Pfad_242" d="M126.584,28.997c.602,.85,1.567,1.368,2.608,1.4,.875,0,1.863-.373,1.863-1.062,0-.745-.633-1.118-1.955-1.378-1.844-.373-3.148-1.1-3.148-2.72,0-1.248,1.248-2.477,3.166-2.477,1.192-.009,2.339,.459,3.185,1.3l-1.025,1.061c-.57-.583-1.344-.923-2.16-.949-1.1,0-1.639,.54-1.639,1.1,0,.652,.671,1.006,2.086,1.3,1.639,.354,3.037,.968,3.037,2.72,0,1.658-1.751,2.514-3.409,2.514-1.441-.007-2.799-.672-3.688-1.806l1.079-1.003Z" fill="#fff"/><path id="Pfad_243" d="M134.538,22.981h1.677v-2.627h1.564v2.627h2.683v1.415h-2.683v4.638c-.097,.629,.335,1.218,.965,1.315,.094,.014,.189,.017,.283,.008,.354-.03,.694-.152,.987-.354l.577,1.285c-.539,.33-1.156,.51-1.788,.521-1.389,.044-2.55-1.046-2.594-2.435-.003-.088,0-.177,.006-.265v-4.713h-1.677v-1.415Z" fill="#fff"/><path id="Pfad_244" d="M150.929,27.339c.002,.167-.004,.334-.019,.5h-6.947c.197,1.473,1.475,2.559,2.961,2.515,1.011-.006,1.963-.472,2.589-1.266l.988,1.024c-.892,1.055-2.196,1.675-3.577,1.7-2.429,.05-4.44-1.879-4.49-4.308-.001-.073-.001-.145,0-.218-.136-2.359,1.665-4.382,4.025-4.519,.092-.005,.183-.008,.275-.007,2.406-.003,4.194,1.803,4.194,4.579Zm-1.527-.8c-.138-1.356-1.302-2.374-2.664-2.329-1.377-.047-2.563,.962-2.738,2.329h5.402Z" fill="#fff"/><path id="Pfad_245" d="M165.533,26.053v5.537h-1.565v-5.29c0-1.4-.726-2.087-1.844-2.087-.824,.079-1.535,.611-1.844,1.379v6h-1.564v-5.29c0-1.4-.726-2.087-1.844-2.087-.821,.087-1.529,.616-1.844,1.379v6h-1.565v-8.6h1.453v1.266c.44-.916,1.368-1.496,2.384-1.49,1.145-.096,2.224,.547,2.683,1.6,.478-.983,1.477-1.605,2.57-1.6,1.787-.013,2.98,1.16,2.98,3.283Z" fill="#fff"/><path id="Pfad_246" d="M178.423,25.719c-1.9-.875-3.576-1.751-3.576-3.968,.075-1.969,1.732-3.505,3.701-3.43l.061,.003c1.466,.012,2.84,.717,3.706,1.9l-1.173,.95c-.59-.819-1.524-1.32-2.533-1.36-1.116-.095-2.099,.732-2.194,1.849-.003,.029-.004,.059-.006,.088,0,1.322,1.118,1.844,2.906,2.663,1.993,.913,3.241,1.751,3.241,3.855,0,2.124-1.75,3.539-4.042,3.539-1.802,0-3.432-1.068-4.153-2.719l1.3-.782c.477,1.168,1.589,1.953,2.85,2.011,1.202,.14,2.289-.722,2.429-1.924,.005-.042,.008-.083,.011-.125,.005-1.359-1.075-1.88-2.528-2.55Z" fill="#fff"/><path id="Pfad_247" d="M184.72,22.981h1.677v-2.627h1.561v2.627h2.683v1.415h-2.683v4.638c-.097,.629,.335,1.218,.964,1.315,.094,.014,.19,.017,.285,.008,.354-.03,.694-.152,.987-.354l.577,1.285c-.539,.33-1.156,.51-1.788,.521-1.389,.044-2.55-1.046-2.594-2.435-.003-.088,0-.177,.006-.265v-4.713h-1.677l.003-1.415Z" fill="#fff"/><path id="Pfad_248" d="M198.317,22.981l-.577,1.415c-.31-.138-.649-.202-.988-.186-.875,.085-1.633,.643-1.974,1.453v5.927h-1.565v-8.6h1.453v1.322c.47-.904,1.383-1.492,2.4-1.546,.426-.003,.85,.07,1.251,.215Z" fill="#fff"/><path id="Pfad_249" d="M200.292,28.513v-5.532h1.565v5.271c-.113,1.048,.645,1.989,1.692,2.102,.124,.013,.25,.015,.375,.003,.914-.059,1.729-.597,2.142-1.415v-5.96h1.565v8.6h-1.453v-1.318c-.54,.953-1.55,1.543-2.645,1.546-1.729,.063-3.181-1.288-3.243-3.016-.003-.093-.003-.187,.002-.281Z" fill="#fff"/><path id="Pfad_250" d="M218.118,30.151c-.874,1.042-2.16,1.648-3.52,1.658-2.5-.053-4.483-2.121-4.431-4.621,.051-2.426,2.005-4.38,4.431-4.431,1.31,.005,2.557,.567,3.428,1.546l-1.062,.95c-.605-.667-1.465-1.046-2.366-1.043-1.697,.119-2.977,1.591-2.859,3.288,.107,1.532,1.326,2.752,2.859,2.859,.984,.004,1.914-.45,2.515-1.23l1.005,1.024Z" fill="#fff"/><path id="Pfad_251" d="M219.645,22.981h1.677v-2.627h1.561v2.627h2.682v1.415h-2.682v4.638c-.097,.629,.335,1.218,.964,1.315,.094,.014,.19,.017,.285,.008,.354-.03,.694-.152,.987-.354l.577,1.285c-.539,.33-1.156,.51-1.788,.521-1.389,.044-2.55-1.046-2.594-2.435-.003-.088,0-.177,.006-.265v-4.713h-1.677l.003-1.415Z" fill="#fff"/><path id="Pfad_252" d="M228.14,28.513v-5.532h1.565v5.271c-.113,1.048,.645,1.989,1.692,2.102,.124,.013,.25,.015,.375,.003,.914-.06,1.729-.598,2.142-1.415v-5.96h1.566v8.6h-1.453v-1.318c-.54,.953-1.55,1.543-2.645,1.546-1.729,.063-3.181-1.287-3.244-3.015-.003-.094-.003-.188,.002-.282Z" fill="#fff"/><path id="Pfad_253" d="M243.713,22.981l-.577,1.415c-.31-.138-.649-.202-.988-.186-.875,.085-1.633,.643-1.974,1.453v5.927h-1.565v-8.6h1.453v1.322c.47-.903,1.383-1.491,2.4-1.546,.426-.003,.85,.07,1.251,.215Z" fill="#fff"/><path id="Pfad_254" d="M253.287,27.339c.002,.167-.004,.334-.019,.5h-6.947c.197,1.473,1.475,2.559,2.961,2.515,1.011-.007,1.963-.472,2.589-1.266l.987,1.024c-.892,1.055-2.195,1.674-3.576,1.7-2.43,.05-4.44-1.879-4.49-4.308-.001-.073-.001-.145,0-.218-.137-2.359,1.664-4.382,4.023-4.519,.092-.005,.185-.008,.277-.007,2.406-.003,4.194,1.803,4.194,4.579Zm-1.527-.8c-.138-1.356-1.301-2.373-2.663-2.329-1.377-.047-2.563,.962-2.738,2.329h5.401Z" fill="#fff"/><path id="Pfad_255" d="M115.574,43.308c.093,1.45-.189,2.899-.819,4.209l2.272,2.049-.95,1.118-2.235-1.974c-1.102,1.264-2.7,1.985-4.377,1.974-2.571,0-4.153-1.509-4.153-3.073,0-1.434,.522-2.272,2.794-4.042-1.49-1.341-1.956-2.235-1.956-3.39,.173-1.81,1.782-3.137,3.592-2.964,1.57,.15,2.814,1.394,2.964,2.964,0,1.1-.373,1.789-2.329,3.409l3.26,2.943s.484-.615,.484-3.222h1.453Zm-2.775,4.45l-3.594-3.2-.056,.056c-1.564,1.285-2.272,1.919-2.272,2.812,0,1.3,1.36,1.807,2.589,1.807,1.271,.014,2.486-.522,3.332-1.471v-.004Zm-3.463-5.122c1.639-1.434,1.806-1.6,1.806-2.459-.042-.91-.803-1.621-1.714-1.6-.911-.035-1.678,.676-1.713,1.587v.013c0,1.193,.764,1.603,1.62,2.46h0Z" fill="#fff"/><path id="Pfad_256" d="M125.261,37.423h3.371c2.72,0,4.452,1.434,4.452,3.93s-1.732,3.93-4.452,3.93h-1.807v5.178h-1.564v-13.038Zm3.278,6.37c1.769,0,2.98-.782,2.98-2.44s-1.211-2.44-2.98-2.44h-1.714v4.88h1.714Z" fill="#fff"/><path id="Pfad_257" d="M142.659,44.798v5.662h-1.434v-1.247c-.686,.926-1.771,1.472-2.924,1.471-1.689,.077-3.121-1.229-3.199-2.919v-.024c-.001-1.676,1.471-2.869,3.408-2.869,.913-.014,1.811,.231,2.589,.708v-.465c.045-1.082-.796-1.996-1.878-2.041-.101-.004-.202,0-.302,.011-.901,.045-1.779,.293-2.57,.727l-.652-1.3c.978-.571,2.09-.873,3.222-.875,2.529-.005,3.74,1.56,3.74,3.161Zm-1.565,3.2v-1.21c-.676-.418-1.459-.632-2.254-.615-1.341,0-2.18,.671-2.18,1.565,0,1.117,1.006,1.564,1.975,1.564,.971-.05,1.871-.526,2.459-1.3v-.004Z" fill="#fff"/><path id="Pfad_258" d="M150.889,41.856l-.577,1.415c-.31-.138-.649-.202-.988-.186-.875,.085-1.633,.643-1.974,1.453v5.923h-1.561v-8.6h1.453v1.312c.47-.904,1.383-1.492,2.4-1.546,.426,.002,.848,.079,1.247,.229Z" fill="#fff"/><path id="Pfad_259" d="M159.797,44.798v5.662h-1.435v-1.247c-.686,.926-1.771,1.472-2.924,1.471-1.689,.077-3.121-1.229-3.199-2.919v-.024c-.001-1.676,1.471-2.869,3.408-2.869,.913-.014,1.811,.231,2.589,.708v-.465c.045-1.082-.796-1.996-1.878-2.041-.1-.004-.201,0-.301,.011-.901,.045-1.779,.293-2.57,.727l-.652-1.3c.978-.571,2.09-.873,3.222-.875,2.529-.005,3.74,1.56,3.74,3.161Zm-1.565,3.2v-1.21c-.676-.418-1.459-.632-2.254-.615-1.341,0-2.18,.671-2.18,1.565,0,1.117,1.006,1.564,1.975,1.564,.971-.05,1.871-.526,2.459-1.3v-.004Z" fill="#fff"/><path id="Pfad_260" d="M174.996,44.929v5.532h-1.564v-5.288c0-1.4-.726-2.086-1.844-2.086-.824,.079-1.535,.61-1.844,1.378v6h-1.564v-5.292c0-1.4-.726-2.086-1.844-2.086-.821,.086-1.529,.615-1.844,1.378v6h-1.565v-8.6h1.453v1.266c.44-.916,1.368-1.496,2.384-1.49,1.145-.096,2.224,.547,2.683,1.6,.478-.983,1.477-1.605,2.57-1.6,1.787-.009,2.979,1.164,2.979,3.288Z" fill="#fff"/><path id="Pfad_261" d="M186.024,46.214c.002,.167-.004,.334-.019,.5h-6.947c.197,1.474,1.476,2.56,2.962,2.515,1.011-.007,1.963-.472,2.589-1.266l.987,1.024c-.892,1.055-2.195,1.674-3.576,1.7-2.429,.05-4.44-1.879-4.49-4.308-.001-.073-.001-.145,0-.218-.137-2.359,1.664-4.382,4.023-4.519,.092-.005,.185-.008,.277-.007,2.409-.003,4.193,1.804,4.193,4.579Zm-1.528-.8c-.138-1.355-1.301-2.373-2.663-2.328-1.377-.047-2.564,.961-2.739,2.328h5.402Z" fill="#fff"/><path id="Pfad_262" d="M187.812,41.856h1.677v-2.627h1.565v2.627h2.682v1.415h-2.682v4.636c-.097,.629,.335,1.217,.963,1.314,.094,.014,.19,.017,.285,.008,.354-.03,.694-.152,.987-.354l.577,1.285c-.539,.33-1.156,.51-1.788,.521-1.389,.044-2.55-1.046-2.594-2.435-.003-.088,0-.177,.006-.265v-4.712h-1.677v-1.413Z" fill="#fff"/><path id="Pfad_263" d="M204.204,46.214c.002,.167-.004,.334-.019,.5h-6.947c.197,1.474,1.476,2.56,2.962,2.515,1.011-.007,1.963-.472,2.589-1.266l.987,1.024c-.892,1.055-2.195,1.674-3.576,1.7-2.429,.05-4.44-1.879-4.49-4.308-.001-.073-.001-.145,0-.218-.136-2.359,1.665-4.382,4.025-4.519,.092-.005,.183-.008,.275-.007,2.405-.003,4.193,1.804,4.193,4.579Zm-1.527-.8c-.138-1.355-1.301-2.373-2.663-2.328-1.377-.047-2.563,.962-2.738,2.328h5.401Z" fill="#fff"/><path id="Pfad_264" d="M211.84,41.856l-.577,1.415c-.31-.138-.648-.202-.987-.186-.875,.085-1.633,.643-1.974,1.453v5.923h-1.565v-8.6h1.453v1.312c.47-.903,1.383-1.491,2.4-1.546,.427,.001,.85,.079,1.25,.229Z" fill="#fff"/><path id="Pfad_265" d="M214.878,38.037c.587,0,1.062,.475,1.062,1.062s-.475,1.062-1.062,1.062c-.587,0-1.062-.475-1.062-1.062,.007-.584,.478-1.055,1.062-1.062Zm-.782,3.819h1.564v8.6h-1.564v-8.6Z" fill="#fff"/><path id="Pfad_266" d="M226.203,41.856l-4.936,7.152h4.731v1.453h-7.488l4.936-7.152h-4.675v-1.453h7.432Z" fill="#fff"/><path id="Pfad_267" d="M235.722,44.798v5.662h-1.434v-1.247c-.686,.926-1.771,1.472-2.924,1.471-1.689,.077-3.121-1.229-3.199-2.919v-.024c-.001-1.676,1.471-2.869,3.408-2.869,.912-.014,1.81,.232,2.588,.708v-.465c.045-1.082-.796-1.996-1.878-2.041-.1-.004-.201,0-.301,.011-.901,.045-1.779,.293-2.57,.727l-.652-1.3c.978-.571,2.09-.873,3.222-.875,2.529-.005,3.74,1.56,3.74,3.161Zm-1.565,3.2v-1.21c-.676-.418-1.459-.632-2.254-.615-1.341,0-2.179,.671-2.179,1.565,0,1.117,1.006,1.564,1.974,1.564,.973-.049,1.874-.524,2.463-1.3l-.004-.004Z" fill="#fff"/><path id="Pfad_268" d="M238.106,41.856h1.68v-2.627h1.564v2.627h2.683v1.415h-2.683v4.636c-.097,.629,.335,1.217,.963,1.314,.094,.014,.19,.017,.285,.008,.354-.03,.694-.152,.987-.354l.577,1.285c-.539,.33-1.156,.51-1.788,.521-1.389,.044-2.55-1.046-2.594-2.435-.003-.088,0-.177,.006-.265v-4.712h-1.679v-1.413Z" fill="#fff"/><path id="Pfad_269" d="M247.662,38.037c.587,0,1.062,.475,1.062,1.062s-.476,1.062-1.062,1.062c-.587,0-1.062-.475-1.062-1.062,.006-.584,.478-1.055,1.062-1.062Zm-.782,3.819h1.564v8.6h-1.561l-.003-8.6Z" fill="#fff"/><path id="Pfad_270" d="M260.122,46.158c-.051,2.448-2.077,4.392-4.525,4.341s-4.392-2.077-4.341-4.525c.05-2.412,2.02-4.342,4.433-4.342,2.433-.016,4.419,1.944,4.434,4.377,0,.05,0,.099-.002,.149Zm-1.564,0c-.109-1.584-1.482-2.779-3.066-2.67-1.584,.109-2.779,1.482-2.67,3.066,.104,1.507,1.357,2.677,2.867,2.677,1.594-.006,2.881-1.303,2.875-2.897,0-.059-.002-.117-.006-.176Z" fill="#fff"/><path id="Pfad_271" d="M269.996,44.929v5.532h-1.565v-5.271c.11-1.048-.65-1.987-1.698-2.097-.123-.013-.246-.014-.369-.003-.914,.09-1.72,.637-2.142,1.453v5.923h-1.565v-8.6h1.452v1.211c.57-.908,1.574-1.452,2.646-1.434,1.729-.062,3.18,1.288,3.243,3.017,.003,.09,.003,.179-.002,.269Z" fill="#fff"/></svg>