<?xml version="1.0" encoding="UTF-8"?><svg id="Ebene_1" xmlns="http://www.w3.org/2000/svg" viewBox="0 0 104 123"><path id="Pfad_18" d="M69.942,69.903l-10.7,34.069-4.426-12.351c.05-.073,.1-.143,.146-.215,2.114-1.507,3.334-3.973,3.25-6.568,0-4.1-2.719-7.421-6.073-7.421-1.503,.025-2.929,.67-3.941,1.782-1.408,1.08-2.182,2.793-2.06,4.564-.045,.357-.069,.716-.071,1.075-.04,2.141,.768,4.212,2.247,5.76,.423,.763,.738,1.229,.738,1.229l-4.117,12.249-11.017-34.173C-7.356,75.668,2.525,109.221,2.525,109.221c53.316,27.687,98.5-.1,98.5-.1,9.677-33.043-31.083-39.218-31.083-39.218Z" fill="none" stroke="#fff" stroke-miterlimit="10" stroke-width="2"/><path id="Pfad_19" d="M75.383,35.057c5.709-22.783-6.059-24.133-6.059-24.133C64.847,1.043,50.48,1.502,50.48,1.502c-26.724,3.978-24.622,25.567-22.788,33.833-2.117,1.38-3.1,5.32-2.209,9.607,.808,3.9,2.924,6.931,5.177,7.761,2.968,11.515,11.392,19.823,21.327,19.823,9.989,0,18.451-8.4,21.376-20.008,2.09-1.034,3.994-3.92,4.751-7.576,.958-4.625-.257-8.848-2.731-9.885Z" fill="none" stroke="#fff" stroke-miterlimit="10" stroke-width="2"/><line id="Linie_11" x1="42.115" y1="95.168" x2="50.425" y2="121.212" fill="none" stroke="#fff" stroke-miterlimit="10" stroke-width="2"/><line id="Linie_12" x1="60.361" y1="100.285" x2="53.737" y2="121.391" fill="none" stroke="#fff" stroke-miterlimit="10" stroke-width="2"/></svg>