<?xml version="1.0" encoding="UTF-8"?><svg id="Ebene_1" xmlns="http://www.w3.org/2000/svg" viewBox="0 0 49 40"><path id="Pfad_2" d="M21.789,15.171c.036,3.073-.694,6.106-2.124,8.826-1.323,2.532-3,4.862-4.98,6.921-1.96,2.008-4.12,3.812-6.445,5.383-1.814,1.263-3.697,2.424-5.64,3.479L.109,35.461c2-1.172,3.917-2.38,5.75-3.625,1.547-1.003,2.962-2.196,4.211-3.552,1.256-1.374,2.315-2.914,3.149-4.578,.877-1.978,1.374-4.103,1.465-6.265h-3.515c-3.079,0-5.471-.781-7.178-2.343-1.765-1.695-2.701-4.076-2.564-6.519,.047-2.118,.883-4.142,2.344-5.676C5.385,1.098,7.725,.116,10.143,.23c4.151,0,7.129,1.379,8.936,4.138s2.71,6.36,2.71,10.803Zm27.1,0c.036,3.073-.694,6.106-2.124,8.826-1.323,2.532-3,4.862-4.98,6.921-1.96,2.008-4.12,3.812-6.445,5.383-1.814,1.263-3.697,2.424-5.64,3.479l-2.491-4.319c2-1.172,3.917-2.38,5.75-3.625,1.547-1.003,2.962-2.196,4.211-3.552,1.256-1.374,2.315-2.914,3.149-4.578,.877-1.978,1.374-4.103,1.465-6.265h-3.516c-3.076,0-5.469-.781-7.178-2.344-1.764-1.695-2.7-4.076-2.563-6.519,.047-2.118,.883-4.142,2.344-5.676,1.613-1.805,3.954-2.787,6.372-2.673,4.151,0,7.129,1.379,8.936,4.138,1.807,2.759,2.71,6.36,2.709,10.804h0Z" fill="#fff"/></svg>